Pontano Sans-Regular.ufo
<glyph name="parenright" format="1">
  <advance width="602"/>
  <unicode hex="0029"/>
  <outline>
    <contour>
      <point x="552" y="703" type="curve"/>
      <point x="552" y="1242"/>
      <point x="354" y="1518"/>
      <point x="63" y="1587" type="curve"/>
      <point x="34" y="1502" type="line"/>
      <point x="304" y="1426"/>
      <point x="402" y="1117"/>
      <point x="402" y="703" type="curve"/>
      <point x="402" y="289"/>
      <point x="304" y="-20"/>
      <point x="34" y="-96" type="curve"/>
      <point x="63" y="-181" type="line"/>
      <point x="354" y="-112"/>
      <point x="552" y="164"/>
    </contour>
  </outline>
</glyph>
<glyph name="asterisk" format="1">
  <advance width="826"/>
  <unicode hex="002A"/>
  <outline>
    <contour>
      <point x="460" y="763" type="line"/>
      <point x="364" y="763" type="line"/>
      <point x="373" y="1050" type="line"/>
      <point x="117" y="895" type="line"/>
      <point x="72" y="983" type="line"/>
      <point x="338" y="1113" type="line"/>
      <point x="71" y="1243" type="line"/>
      <point x="116" y="1331" type="line"/>
      <point x="373" y="1176" type="line"/>
      <point x="364" y="1464" type="line"/>
      <point x="460" y="1464" type="line"/>
      <point x="451" y="1177" type="line"/>
      <point x="707" y="1332" type="line"/>
      <point x="752" y="1244" type="line"/>
      <point x="486" y="1114" type="line"/>
      <point x="753" y="984" type="line"/>
      <point x="708" y="896" type="line"/>
      <point x="451" y="1051" type="line"/>
    </contour>
  </outline>
</glyph>
<glyph name="plus" format="1">
  <advance width="860"/>
  <unicode hex="002B"/>
  <outline>
    <contour>
      <point x="72" y="673" type="line"/>
      <point x="72" y="773" type="line"/>
      <point x="376" y="773" type="line"/>
      <point x="376" y="1100" type="line"/>
      <point x="478" y="1100" type="line"/>
      <point x="478" y="773" type="line"/>
      <point x="778" y="773" type="line"/>
      <point x="778" y="673" type="line"/>
      <point x="478" y="673" type="line"/>
      <point x="478" y="350" type="line"/>
      <point x="376" y="350" type="line"/>
      <point x="376" y="673" type="line"/>
    </contour>
  </outline>
</glyph>
<glyph name="comma" format="1">
  <advance width="445"/>
  <unicode hex="002C"/>
  <outline>
    <contour>
      <point x="90" y="219" type="line"/>
      <point x="310" y="219" type="line"/>
      <point x="310" y="134" type="line"/>
      <point x="305" y="-24"/>
      <point x="305" y="-163"/>
      <point x="163" y="-254" type="curve"/>
      <point x="104" y="-192" type="line"/>
      <point x="129" y="-172"/>
      <point x="181" y="-105"/>
      <point x="184" y="16" type="curve"/>
      <point x="90" y="29" type="line"/>
    </contour>
  </outline>
</glyph>
<glyph name="two" format="1">
  <advance width="1246"/>
  <unicode hex="0032"/>
  <outline>
    <contour>
      <point x="275" y="1089" type="line"/>
      <point x="358" y="1275"/>
      <point x="456" y="1374"/>
      <point x="633" y="1374" type="curve" smooth="yes"/>
      <point x="792" y="1374"/>
      <point x="909" y="1263"/>
      <point x="909" y="1060" type="curve" smooth="yes"/>
      <point x="909" y="625"/>
      <point x="206" y="481"/>
      <point x="190" y="0" type="curve"/>
      <point x="1055" y="0" type="line"/>
      <point x="1055" y="125" type="line"/>
      <point x="350" y="125" type="line"/>
      <point x="504" y="475"/>
      <point x="1053" y="606"/>
      <point x="1053" y="1057" type="curve" smooth="yes"/>
      <point x="1053" y="1359"/>
      <point x="868" y="1491"/>
      <point x="621" y="1491" type="curve" smooth="yes"/>
      <point x="396" y="1491"/>
      <point x="258" y="1387"/>
      <point x="146" y="1141" type="curve"/>
    </contour>
  </outline>
</glyph>
<glyph name="four" format="1">
  <advance width="1206"/>
  <unicode hex="0034"/>
  <outline>
    <contour>
      <point x="756" y="0" type="line"/>
      <point x="896" y="0" type="line"/>
      <point x="896" y="357" type="line"/>
      <point x="1150" y="357" type="line"/>
      <point x="1150" y="467" type="line"/>
      <point x="895" y="467" type="line"/>
      <point x="895" y="1464" type="line"/>
      <point x="691" y="1464" type="line"/>
      <point x="106" y="464" type="line"/>
      <point x="106" y="357" type="line"/>
      <point x="756" y="357" type="line"/>
    </contour>
    <contour>
      <point x="267" y="467" type="line"/>
      <point x="756" y="1332" type="line"/>
      <point x="756" y="467" type="line"/>
    </contour>
  </outline>
</glyph>
<glyph name="five" format="1">
  <advance width="1163"/>
  <unicode hex="0035"/>
  <outline>
    <contour>
      <point x="595" y="-24" type="curve" smooth="yes"/>
      <point x="888" y="-24"/>
      <point x="1079" y="170"/>
      <point x="1079" y="461" type="curve" smooth="yes"/>
      <point x="1079" y="703"/>
      <point x="937" y="928"/>
      <point x="615" y="928" type="curve" smooth="yes"/>
      <point x="535" y="928"/>
      <point x="402" y="903"/>
      <point x="305" y="823" type="curve"/>
      <point x="345" y="821" type="line"/>
      <point x="419" y="1337" type="line"/>
      <point x="965" y="1337" type="line"/>
      <point x="965" y="1464" type="line"/>
      <point x="288" y="1464" type="line"/>
      <point x="192" y="744" type="line"/>
      <point x="285" y="685" type="line"/>
      <point x="381" y="768"/>
      <point x="492" y="808"/>
      <point x="609" y="808" type="curve" smooth="yes"/>
      <point x="824" y="808"/>
      <point x="930" y="634"/>
      <point x="930" y="453" type="curve" smooth="yes"/>
      <point x="930" y="237"/>
      <point x="796" y="93"/>
      <point x="587" y="93" type="curve" smooth="yes"/>
      <point x="440" y="93"/>
      <point x="303" y="192"/>
      <point x="230" y="359" type="curve"/>
      <point x="106" y="309" type="line"/>
      <point x="197" y="76"/>
      <point x="378" y="-24"/>
    </contour>
  </outline>
</glyph>
<glyph name="six" format="1">
  <advance width="1202"/>
  <unicode hex="0036"/>
  <outline>
    <contour>
      <point x="623" y="-25" type="curve" smooth="yes"/>
      <point x="925" y="-25"/>
      <point x="1083" y="233.508"/>
      <point x="1083" y="484" type="curve" smooth="yes"/>
      <point x="1083" y="789"/>
      <point x="892" y="957"/>
      <point x="622" y="946" type="curve" smooth="yes"/>
      <point x="509" y="941"/>
      <point x="380" y="897"/>
      <point x="283" y="820" type="curve"/>
      <point x="296" y="1177"/>
      <point x="435" y="1369"/>
      <point x="644" y="1374" type="curve" smooth="yes"/>
      <point x="736" y="1376"/>
      <point x="835" y="1346"/>
      <point x="922" y="1285" type="curve"/>
      <point x="963" y="1396" type="line"/>
      <point x="867" y="1460"/>
      <point x="739" y="1491"/>
      <point x="641" y="1491" type="curve" smooth="yes"/>
      <point x="339" y="1491"/>
      <point x="124" y="1201"/>
      <point x="124" y="700" type="curve" smooth="yes"/>
      <point x="124" y="252.383"/>
      <point x="280" y="-25"/>
    </contour>
    <contour>
      <point x="623" y="93" type="curve" smooth="yes"/>
      <point x="346" y="93"/>
      <point x="283" y="369"/>
      <point x="283" y="659" type="curve" smooth="yes"/>
      <point x="283" y="701" type="line"/>
      <point x="382" y="779"/>
      <point x="497" y="830"/>
      <point x="609" y="834" type="curve" smooth="yes"/>
      <point x="834" y="842"/>
      <point x="932" y="722"/>
      <point x="932" y="480" type="curve" smooth="yes"/>
      <point x="932" y="237"/>
      <point x="811" y="93"/>
    </contour>
  </outline>
</glyph>
<glyph name="seven" format="1">
  <advance width="1246"/>
  <unicode hex="0037"/>
  <outline>
    <contour>
      <point x="214" y="1352" type="line"/>
      <point x="202" y="1464" type="line"/>
      <point x="1070" y="1464" type="line"/>
      <point x="1070" y="1351" type="line"/>
      <point x="523" y="-1" type="line"/>
      <point x="365" y="1" type="line"/>
      <point x="918" y="1352" type="line"/>
    </contour>
  </outline>
</glyph>
<glyph name="colon" format="1">
  <advance width="482"/>
  <unicode hex="003A"/>
  <outline>
    <contour>
      <point x="159" y="171" type="line"/>
      <point x="332" y="171" type="line"/>
      <point x="332" y="387" type="line"/>
      <point x="159" y="387" type="line"/>
    </contour>
    <contour>
      <point x="159" y="808" type="line"/>
      <point x="332" y="808" type="line"/>
      <point x="332" y="1024" type="line"/>
      <point x="159" y="1024" type="line"/>
    </contour>
  </outline>
</glyph>
<glyph name="semicolon" format="1">
  <advance width="478"/>
  <unicode hex="003B"/>
  <outline>
    <contour>
      <point x="130" y="219" type="line"/>
      <point x="350" y="219" type="line"/>
      <point x="350" y="134" type="line"/>
      <point x="345" y="-24"/>
      <point x="345" y="-163"/>
      <point x="213" y="-254" type="curve"/>
      <point x="144" y="-182" type="line"/>
      <point x="169" y="-162"/>
      <point x="221" y="-105"/>
      <point x="224" y="16" type="curve"/>
      <point x="130" y="29" type="line"/>
    </contour>
    <contour>
      <point x="342" y="1024" type="line"/>
      <point x="342" y="808" type="line"/>
      <point x="149" y="808" type="line"/>
      <point x="149" y="1024" type="line"/>
    </contour>
  </outline>
</glyph>
<glyph name="equal" format="1">
  <advance width="820"/>
  <unicode hex="003D"/>
  <outline>
    <contour>
      <point x="135" y="300" type="line"/>
      <point x="685" y="300" type="line"/>
      <point x="685" y="400" type="line"/>
      <point x="135" y="400" type="line"/>
    </contour>
    <contour>
      <point x="135" y="550" type="line"/>
      <point x="685" y="550" type="line"/>
      <point x="685" y="650" type="line"/>
      <point x="135" y="650" type="line"/>
    </contour>
  </outline>
</glyph>
<glyph name="at" format="1">
  <advance width="1704"/>
  <unicode hex="0040"/>
  <outline>
    <contour>
      <point x="1100" y="531" type="curve"/>
      <point x="1053" y="373"/>
      <point x="902" y="272"/>
      <point x="764" y="276" type="curve" smooth="yes"/>
      <point x="549" y="282"/>
      <point x="445" y="451"/>
      <point x="445" y="634" type="curve" smooth="yes"/>
      <point x="445" y="888"/>
      <point x="622" y="1150"/>
      <point x="874" y="1150" type="curve" smooth="yes"/>
      <point x="959" y="1150"/>
      <point x="1045" y="1120"/>
      <point x="1145" y="1053" type="curve"/>
      <point x="1169" y="1126" type="line"/>
      <point x="1268" y="1126" type="line"/>
      <point x="1177" y="569" type="line" smooth="yes"/>
      <point x="1163" y="486"/>
      <point x="1198" y="403"/>
      <point x="1277" y="397" type="curve" smooth="yes"/>
      <point x="1373" y="390"/>
      <point x="1473" y="499"/>
      <point x="1473" y="817" type="curve" smooth="yes"/>
      <point x="1473" y="1156"/>
      <point x="1189" y="1360"/>
      <point x="886" y="1360" type="curve" smooth="yes"/>
      <point x="488" y="1360"/>
      <point x="240" y="1004"/>
      <point x="240" y="676" type="curve" smooth="yes"/>
      <point x="240" y="371"/>
      <point x="425" y="88"/>
      <point x="839" y="88" type="curve" smooth="yes"/>
      <point x="955" y="88"/>
      <point x="1094" y="114"/>
      <point x="1246" y="183" type="curve"/>
      <point x="1288" y="100" type="line"/>
      <point x="1123" y="17"/>
      <point x="974" y="-14"/>
      <point x="842" y="-14" type="curve" smooth="yes"/>
      <point x="340" y="-14"/>
      <point x="114" y="326"/>
      <point x="114" y="685" type="curve" smooth="yes"/>
      <point x="114" y="1064"/>
      <point x="393" y="1465"/>
      <point x="883" y="1465" type="curve" smooth="yes"/>
      <point x="1256" y="1465"/>
      <point x="1591" y="1197"/>
      <point x="1591" y="805" type="curve" smooth="yes"/>
      <point x="1591" y="484"/>
      <point x="1435" y="290"/>
      <point x="1256" y="309" type="curve" smooth="yes"/>
      <point x="1200" y="315"/>
      <point x="1101" y="365"/>
    </contour>
    <contour>
      <point x="1123" y="972" type="line"/>
      <point x="1037" y="1030"/>
      <point x="957" y="1055"/>
      <point x="886" y="1055" type="curve" smooth="yes"/>
      <point x="695" y="1055"/>
      <point x="570" y="864"/>
      <point x="570" y="631" type="curve" smooth="yes"/>
      <point x="570" y="498"/>
      <point x="634" y="372"/>
      <point x="779" y="372" type="curve" smooth="yes"/>
      <point x="869" y="372"/>
      <point x="1032" y="428"/>
      <point x="1080" y="716" type="curve" smooth="yes"/>
    </contour>
  </outline>
</glyph>
<glyph name="A" format="1">
  <advance width="1240"/>
  <unicode hex="0041"/>
  <outline>
    <contour>
      <point x="513" y="1464" type="line"/>
      <point x="29" y="0" type="line"/>
      <point x="175" y="0" type="line"/>
      <point x="303" y="399" type="line"/>
      <point x="927" y="399" type="line"/>
      <point x="1061" y="0" type="line"/>
      <point x="1211" y="0" type="line"/>
      <point x="725" y="1464" type="line"/>
    </contour>
    <contour>
      <point x="893" y="508" type="line"/>
      <point x="337" y="508" type="line"/>
      <point x="617" y="1368" type="line"/>
    </contour>
    <contour>
      <point x="1125" y="-0" type="move" name="ogonek"/>
    </contour>
    <contour>
      <point x="617" y="1464" type="move" name="top"/>
    </contour>
  </outline>
</glyph>
<glyph name="B" format="1">
  <advance width="1302.570"/>
  <unicode hex="0042"/>
  <outline>
    <contour>
      <point x="152" y="1464" type="line"/>
      <point x="152" y="0" type="line"/>
      <point x="555" y="0" type="line" smooth="yes"/>
      <point x="1013" y="0"/>
      <point x="1218" y="85"/>
      <point x="1218" y="413" type="curve" smooth="yes"/>
      <point x="1218" y="627"/>
      <point x="1120" y="759"/>
      <point x="885" y="782" type="curve"/>
      <point x="1111" y="806"/>
      <point x="1171" y="925"/>
      <point x="1174" y="1095" type="curve" smooth="yes"/>
      <point x="1180" y="1416"/>
      <point x="893" y="1464"/>
      <point x="591" y="1464" type="curve" smooth="yes"/>
    </contour>
    <contour>
      <point x="893" y="730"/>
      <point x="1073" y="694"/>
      <point x="1073" y="415" type="curve" smooth="yes"/>
      <point x="1073" y="126"/>
      <point x="833" y="112"/>
      <point x="612" y="112" type="curve" smooth="yes"/>
      <point x="298" y="112" type="line"/>
      <point x="298" y="730" type="line"/>
      <point x="593" y="730" type="line" smooth="yes"/>
    </contour>
    <contour>
      <point x="833" y="1352"/>
      <point x="1035" y="1343"/>
      <point x="1035" y="1100" type="curve" smooth="yes"/>
      <point x="1035" y="851"/>
      <point x="879" y="837"/>
      <point x="565" y="837" type="curve" smooth="yes"/>
      <point x="298" y="837" type="line"/>
      <point x="298" y="1352" type="line"/>
      <point x="598" y="1352" type="line" smooth="yes"/>
    </contour>
    <contour>
      <point x="621" y="1464" type="move" name="top"/>
    </contour>
  </outline>
</glyph>
<glyph name="C" format="1">
  <advance width="1384"/>
  <unicode hex="0043"/>
  <outline>
    <contour>
      <point x="742" y="-24" type="curve" smooth="yes"/>
      <point x="1000" y="-24"/>
      <point x="1201" y="102"/>
      <point x="1273" y="365" type="curve"/>
      <point x="1139" y="396" type="line"/>
      <point x="1093" y="219"/>
      <point x="968" y="93"/>
      <point x="737" y="93" type="curve" smooth="yes"/>
      <point x="392" y="93"/>
      <point x="271" y="339"/>
      <point x="271" y="736" type="curve" smooth="yes"/>
      <point x="271" y="1133"/>
      <point x="392" y="1374"/>
      <point x="737" y="1374" type="curve" smooth="yes"/>
      <point x="968" y="1374"/>
      <point x="1093" y="1248"/>
      <point x="1139" y="1071" type="curve"/>
      <point x="1273" y="1102" type="line"/>
      <point x="1201" y="1365"/>
      <point x="1000" y="1491"/>
      <point x="742" y="1491" type="curve" smooth="yes"/>
      <point x="359" y="1491"/>
      <point x="118" y="1267"/>
      <point x="118" y="736" type="curve" smooth="yes"/>
      <point x="118" y="205"/>
      <point x="359" y="-24"/>
    </contour>
    <contour>
      <point x="742" y="0" type="move" name="bot"/>
    </contour>
    <contour>
      <point x="743" y="1464" type="move" name="top"/>
    </contour>
  </outline>
</glyph>
<glyph name="D" format="1">
  <advance width="1409"/>
  <unicode hex="0044"/>
  <outline>
    <contour>
      <point x="152" y="1464" type="line"/>
      <point x="152" y="0" type="line"/>
      <point x="649" y="0" type="line" smooth="yes"/>
      <point x="1087" y="0"/>
      <point x="1291" y="203"/>
      <point x="1291" y="738" type="curve" smooth="yes"/>
      <point x="1291" y="1280"/>
      <point x="1068" y="1464"/>
      <point x="656" y="1464" type="curve" smooth="yes"/>
    </contour>
    <contour>
      <point x="1041" y="1352"/>
      <point x="1144" y="1131"/>
      <point x="1144" y="737" type="curve" smooth="yes"/>
      <point x="1144" y="288"/>
      <point x="1012" y="112"/>
      <point x="601" y="112" type="curve" smooth="yes"/>
      <point x="298" y="112" type="line"/>
      <point x="298" y="1352" type="line"/>
      <point x="657" y="1352" type="line" smooth="yes"/>
    </contour>
    <contour>
      <point x="617" y="1464" type="move" name="top"/>
    </contour>
  </outline>
</glyph>
<glyph name="E" format="1">
  <advance width="1206"/>
  <unicode hex="0045"/>
  <outline>
    <contour>
      <point x="152" y="0" type="line"/>
      <point x="1132" y="0" type="line"/>
      <point x="1132" y="112" type="line"/>
      <point x="298" y="112" type="line"/>
      <point x="298" y="723" type="line"/>
      <point x="1014" y="723" type="line"/>
      <point x="1014" y="838" type="line"/>
      <point x="298" y="838" type="line"/>
      <point x="298" y="1352" type="line"/>
      <point x="1121" y="1352" type="line"/>
      <point x="1121" y="1464" type="line"/>
      <point x="152" y="1464" type="line"/>
    </contour>
    <contour>
      <point x="825" y="0" type="move" name="ogonek"/>
    </contour>
    <contour>
      <point x="670" y="1464" type="move" name="top"/>
    </contour>
  </outline>
</glyph>
<glyph name="F" format="1">
  <advance width="1182.670"/>
  <unicode hex="0046"/>
  <outline>
    <contour>
      <point x="152" y="0" type="line"/>
      <point x="298" y="0" type="line"/>
      <point x="298" y="716" type="line"/>
      <point x="1013" y="716" type="line"/>
      <point x="1013" y="830" type="line"/>
      <point x="298" y="830" type="line"/>
      <point x="298" y="1352" type="line"/>
      <point x="1121" y="1352" type="line"/>
      <point x="1121" y="1464" type="line"/>
      <point x="152" y="1464" type="line"/>
    </contour>
    <contour>
      <point x="642" y="1464" type="move" name="top"/>
    </contour>
  </outline>
</glyph>
<glyph name="G" format="1">
  <advance width="1393"/>
  <unicode hex="0047"/>
  <outline>
    <contour>
      <point x="726" y="-25" type="curve" smooth="yes"/>
      <point x="910" y="-25"/>
      <point x="1059" y="58"/>
      <point x="1123" y="184" type="curve"/>
      <point x="1151" y="0" type="line"/>
      <point x="1248" y="0" type="line"/>
      <point x="1248" y="0"/>
      <point x="1258" y="428"/>
      <point x="1258" y="581" type="curve" smooth="yes"/>
      <point x="1258" y="789" type="line"/>
      <point x="742" y="789" type="line"/>
      <point x="742" y="664" type="line"/>
      <point x="1114" y="664" type="line"/>
      <point x="1114" y="444" type="line" smooth="yes"/>
      <point x="1114" y="203"/>
      <point x="910" y="93"/>
      <point x="744" y="93" type="curve" smooth="yes"/>
      <point x="406" y="93"/>
      <point x="271" y="319"/>
      <point x="271" y="721" type="curve" smooth="yes"/>
      <point x="271" y="1149"/>
      <point x="410" y="1374"/>
      <point x="744" y="1374" type="curve" smooth="yes"/>
      <point x="925" y="1374"/>
      <point x="1056" y="1276"/>
      <point x="1123" y="1095" type="curve"/>
      <point x="1249" y="1139" type="line"/>
      <point x="1163" y="1374"/>
      <point x="989" y="1491"/>
      <point x="745" y="1491" type="curve" smooth="yes"/>
      <point x="370" y="1491"/>
      <point x="118" y="1271"/>
      <point x="118" y="722" type="curve" smooth="yes"/>
      <point x="118" y="168"/>
      <point x="385" y="-25"/>
    </contour>
    <contour>
      <point x="712" y="0" type="move" name="bot"/>
    </contour>
    <contour>
      <point x="747" y="1464" type="move" name="top"/>
    </contour>
  </outline>
</glyph>
<glyph name="H" format="1">
  <advance width="1466"/>
  <unicode hex="0048"/>
  <outline>
    <contour>
      <point x="1168" y="1464" type="line"/>
      <point x="1168" y="836" type="line"/>
      <point x="298" y="836" type="line"/>
      <point x="298" y="1464" type="line"/>
      <point x="152" y="1464" type="line"/>
      <point x="152" y="0" type="line"/>
      <point x="298" y="0" type="line"/>
      <point x="298" y="720" type="line"/>
      <point x="1168" y="720" type="line"/>
      <point x="1168" y="0" type="line"/>
      <point x="1314" y="0" type="line"/>
      <point x="1314" y="1464" type="line"/>
    </contour>
    <contour>
      <point x="734" y="1464" type="move" name="top"/>
    </contour>
  </outline>
</glyph>
<glyph name="I" format="1">
  <advance width="464"/>
  <unicode hex="0049"/>
  <outline>
    <contour>
      <point x="163" y="1464" type="line"/>
      <point x="163" y="0" type="line"/>
      <point x="309" y="0" type="line"/>
      <point x="309" y="1464" type="line"/>
    </contour>
    <contour>
      <point x="251" y="0" type="move" name="ogonek"/>
    </contour>
    <contour>
      <point x="237" y="1464" type="move" name="top"/>
    </contour>
  </outline>
</glyph>
<glyph name="J" format="1">
  <advance width="954"/>
  <unicode hex="004A"/>
  <outline>
    <contour>
      <point x="405" y="-25" type="curve" smooth="yes"/>
      <point x="718" y="-25"/>
      <point x="818" y="166"/>
      <point x="818" y="544" type="curve" smooth="yes"/>
      <point x="818" y="1464" type="line"/>
      <point x="673" y="1464" type="line"/>
      <point x="673" y="541" type="line" smooth="yes"/>
      <point x="673" y="306"/>
      <point x="657" y="95"/>
      <point x="417" y="93" type="curve" smooth="yes"/>
      <point x="255" y="93"/>
      <point x="189" y="198"/>
      <point x="151" y="369" type="curve"/>
      <point x="21" y="334" type="line"/>
      <point x="64" y="117"/>
      <point x="179" y="-25"/>
    </contour>
    <contour>
      <point x="749" y="1464" type="move" name="top"/>
    </contour>
  </outline>
</glyph>
<glyph name="K" format="1">
  <advance width="1256"/>
  <unicode hex="004B"/>
  <outline>
    <contour>
      <point x="152" y="0" type="line"/>
      <point x="298" y="0" type="line"/>
      <point x="298" y="550" type="line"/>
      <point x="554" y="814" type="line"/>
      <point x="1081" y="0" type="line"/>
      <point x="1248" y="0" type="line"/>
      <point x="653" y="916" type="line"/>
      <point x="1184" y="1464" type="line"/>
      <point x="1007" y="1464" type="line"/>
      <point x="298" y="724" type="line"/>
      <point x="298" y="1464" type="line"/>
      <point x="152" y="1464" type="line"/>
    </contour>
    <contour>
      <point x="660" y="0" type="move" name="bot"/>
    </contour>
    <contour>
      <point x="617" y="1464" type="move" name="top"/>
    </contour>
  </outline>
</glyph>
<glyph name="L" format="1">
  <advance width="1024"/>
  <unicode hex="004C"/>
  <outline>
    <contour>
      <point x="152" y="1464" type="line"/>
      <point x="152" y="0" type="line"/>
      <point x="1045" y="0" type="line"/>
      <point x="1045" y="112" type="line"/>
      <point x="298" y="112" type="line"/>
      <point x="298" y="1464" type="line"/>
    </contour>
    <contour>
      <point x="621" y="1474" type="move" name="top"/>
    </contour>
  </outline>
</glyph>
<glyph name="M" format="1">
  <advance width="1653"/>
  <unicode hex="004D"/>
  <outline>
    <contour>
      <point x="152" y="0" type="line"/>
      <point x="291" y="0" type="line"/>
      <point x="291" y="1282" type="line"/>
      <point x="757" y="250" type="line"/>
      <point x="892" y="250" type="line"/>
      <point x="1367" y="1277" type="line"/>
      <point x="1367" y="0" type="line"/>
      <point x="1501" y="0" type="line"/>
      <point x="1501" y="1464" type="line"/>
      <point x="1310" y="1464" type="line"/>
      <point x="830" y="405" type="line"/>
      <point x="363" y="1464" type="line"/>
      <point x="152" y="1464" type="line"/>
    </contour>
    <contour>
      <point x="842" y="1464" type="move" name="top"/>
    </contour>
  </outline>
</glyph>
<glyph name="N" format="1">
  <advance width="1499"/>
  <unicode hex="004E"/>
  <outline>
    <contour>
      <point x="1218" y="1464" type="line"/>
      <point x="1218" y="221" type="line"/>
      <point x="315" y="1464" type="line"/>
      <point x="152" y="1464" type="line"/>
      <point x="152" y="0" type="line"/>
      <point x="285" y="0" type="line"/>
      <point x="285" y="1290" type="line"/>
      <point x="1215" y="0" type="line"/>
      <point x="1347" y="0" type="line"/>
      <point x="1347" y="1464" type="line"/>
    </contour>
    <contour>
      <point x="789" y="1474" type="move" name="top"/>
    </contour>
  </outline>
</glyph>
<glyph name="O" format="1">
  <advance width="1457"/>
  <unicode hex="004F"/>
  <outline>
    <contour>
      <point x="348" y="1488"/>
      <point x="118" y="1282"/>
      <point x="118" y="740" type="curve" smooth="yes"/>
      <point x="118" y="186"/>
      <point x="343" y="-24"/>
      <point x="726" y="-24" type="curve" smooth="yes"/>
      <point x="1117" y="-24"/>
      <point x="1339" y="193"/>
      <point x="1339" y="741" type="curve" smooth="yes"/>
      <point x="1339" y="1281"/>
      <point x="1107" y="1488"/>
      <point x="727" y="1488" type="curve" smooth="yes"/>
    </contour>
    <contour>
      <point x="1081" y="1372"/>
      <point x="1185" y="1131"/>
      <point x="1185" y="740" type="curve" smooth="yes"/>
      <point x="1185" y="298"/>
      <point x="1068" y="92"/>
      <point x="728" y="92" type="curve" smooth="yes"/>
      <point x="388" y="92"/>
      <point x="272" y="302"/>
      <point x="272" y="741" type="curve" smooth="yes"/>
      <point x="272" y="1131"/>
      <point x="374" y="1372"/>
      <point x="727" y="1372" type="curve" smooth="yes"/>
    </contour>
    <contour>
      <point x="785" y="0" type="move" name="ogonek"/>
    </contour>
    <contour>
      <point x="747" y="1464" type="move" name="top"/>
    </contour>
  </outline>
</glyph>
<glyph name="P" format="1">
  <advance width="1252"/>
  <unicode hex="0050"/>
  <outline>
    <contour>
      <point x="152" y="0" type="line"/>
      <point x="298" y="0" type="line"/>
      <point x="298" y="635" type="line"/>
      <point x="479" y="635" type="line" smooth="yes"/>
      <point x="991" y="635"/>
      <point x="1190" y="724"/>
      <point x="1190" y="1063" type="curve" smooth="yes"/>
      <point x="1190" y="1360"/>
      <point x="1014" y="1464"/>
      <point x="538" y="1464" type="curve" smooth="yes"/>
      <point x="152" y="1464" type="line"/>
    </contour>
    <contour>
      <point x="298" y="748" type="line"/>
      <point x="298" y="1352" type="line"/>
      <point x="515" y="1352" type="line" smooth="yes"/>
      <point x="898" y="1352"/>
      <point x="1042" y="1306"/>
      <point x="1042" y="1055" type="curve" smooth="yes"/>
      <point x="1042" y="807"/>
      <point x="898" y="749"/>
      <point x="535" y="748" type="curve" smooth="yes"/>
    </contour>
    <contour>
      <point x="632" y="1464" type="move" name="top"/>
    </contour>
  </outline>
</glyph>
<glyph name="Q" format="1">
  <advance width="1462"/>
  <unicode hex="0051"/>
  <outline>
    <contour>
      <point x="1266" y="-345" type="line"/>
      <point x="1374" y="-263" type="line"/>
      <point x="1114" y="90" type="line"/>
      <point x="1260" y="205"/>
      <point x="1339" y="414"/>
      <point x="1339" y="741" type="curve" smooth="yes"/>
      <point x="1339" y="1281"/>
      <point x="1107" y="1488"/>
      <point x="727" y="1488" type="curve" smooth="yes"/>
      <point x="348" y="1488"/>
      <point x="118" y="1282"/>
      <point x="118" y="740" type="curve" smooth="yes"/>
      <point x="118" y="186"/>
      <point x="343" y="-24"/>
      <point x="726" y="-24" type="curve" smooth="yes"/>
      <point x="834" y="-24"/>
      <point x="929" y="-8"/>
      <point x="1010" y="28" type="curve"/>
    </contour>
    <contour>
      <point x="728" y="92" type="curve" smooth="yes"/>
      <point x="388" y="92"/>
      <point x="272" y="302"/>
      <point x="272" y="741" type="curve" smooth="yes"/>
      <point x="272" y="1131"/>
      <point x="374" y="1372"/>
      <point x="727" y="1372" type="curve" smooth="yes"/>
      <point x="1081" y="1372"/>
      <point x="1185" y="1131"/>
      <point x="1185" y="740" type="curve" smooth="yes"/>
      <point x="1185" y="298"/>
      <point x="1068" y="92"/>
    </contour>
    <contour>
      <point x="785" y="0" type="move" name="ogonek"/>
    </contour>
    <contour>
      <point x="747" y="1464" type="move" name="top"/>
    </contour>
  </outline>
</glyph>
<glyph name="R" format="1">
  <advance width="1300"/>
  <unicode hex="0052"/>
  <outline>
    <contour>
      <point x="152" y="0" type="line"/>
      <point x="298" y="0" type="line"/>
      <point x="298" y="675" type="line"/>
      <point x="754" y="675" type="line"/>
      <point x="1086" y="0" type="line"/>
      <point x="1242" y="0" type="line"/>
      <point x="902" y="695" type="line"/>
      <point x="1111" y="733"/>
      <point x="1218" y="869"/>
      <point x="1218" y="1081" type="curve" smooth="yes"/>
      <point x="1218" y="1346"/>
      <point x="1068" y="1464"/>
      <point x="681" y="1464" type="curve" smooth="yes"/>
      <point x="152" y="1464" type="line"/>
    </contour>
    <contour>
      <point x="298" y="786" type="line"/>
      <point x="298" y="1352" type="line"/>
      <point x="672" y="1352" type="line" smooth="yes"/>
      <point x="873" y="1352"/>
      <point x="1069" y="1336"/>
      <point x="1069" y="1079" type="curve" smooth="yes"/>
      <point x="1069" y="825"/>
      <point x="892" y="786"/>
      <point x="678" y="786" type="curve" smooth="yes"/>
    </contour>
    <contour>
      <point x="662" y="0" type="move" name="bot"/>
    </contour>
    <contour>
      <point x="637" y="1464" type="move" name="top"/>
    </contour>
  </outline>
</glyph>
<glyph name="S" format="1">
  <advance width="1213"/>
  <unicode hex="0053"/>
  <outline>
    <contour>
      <point x="612" y="-25" type="curve" smooth="yes"/>
      <point x="938" y="-25"/>
      <point x="1155" y="126"/>
      <point x="1155" y="393" type="curve" smooth="yes"/>
      <point x="1155" y="646"/>
      <point x="998" y="735"/>
      <point x="710" y="829" type="curve" smooth="yes"/>
      <point x="489" y="901"/>
      <point x="281" y="934"/>
      <point x="281" y="1137" type="curve" smooth="yes"/>
      <point x="281" y="1308"/>
      <point x="443" y="1374"/>
      <point x="636" y="1374" type="curve" smooth="yes"/>
      <point x="794" y="1374"/>
      <point x="936" y="1303"/>
      <point x="1016" y="1160" type="curve"/>
      <point x="1124" y="1240" type="line"/>
      <point x="1006" y="1420"/>
      <point x="847" y="1491"/>
      <point x="615" y="1491" type="curve" smooth="yes"/>
      <point x="369" y="1491"/>
      <point x="128" y="1378"/>
      <point x="128" y="1125" type="curve" smooth="yes"/>
      <point x="128" y="880"/>
      <point x="325" y="806"/>
      <point x="562" y="731" type="curve" smooth="yes"/>
      <point x="879" y="631"/>
      <point x="1002" y="584"/>
      <point x="1002" y="388" type="curve" smooth="yes"/>
      <point x="1002" y="161"/>
      <point x="803" y="93"/>
      <point x="627" y="93" type="curve" smooth="yes"/>
      <point x="377" y="93"/>
      <point x="226" y="200"/>
      <point x="165" y="426" type="curve"/>
      <point x="42" y="373" type="line"/>
      <point x="98" y="69"/>
      <point x="387" y="-25"/>
    </contour>
    <contour>
      <point x="632" y="1464" type="move" name="top"/>
    </contour>
    <contour>
      <point x="616" y="0" type="move" name="_bot"/>
    </contour>
  </outline>
</glyph>
<glyph name="T" format="1">
  <advance width="1119"/>
  <unicode hex="0054"/>
  <outline>
    <contour>
      <point x="493" y="0" type="line"/>
      <point x="639" y="0" type="line"/>
      <point x="639" y="1352" type="line"/>
      <point x="1110" y="1352" type="line"/>
      <point x="1110" y="1464" type="line"/>
      <point x="9" y="1464" type="line"/>
      <point x="9" y="1352" type="line"/>
      <point x="493" y="1352" type="line"/>
    </contour>
    <contour>
      <point x="568" y="0" type="move" name="bot"/>
    </contour>
    <contour>
      <point x="572" y="1464" type="move" name="top"/>
    </contour>
  </outline>
</glyph>
<glyph name="U" format="1">
  <advance width="1346"/>
  <unicode hex="0055"/>
  <outline>
    <contour>
      <point x="1077" y="1464" type="line"/>
      <point x="1077" y="574" type="line" smooth="yes"/>
      <point x="1077" y="279"/>
      <point x="1002" y="92"/>
      <point x="676" y="92" type="curve" smooth="yes"/>
      <point x="348" y="92"/>
      <point x="269" y="273"/>
      <point x="269" y="574" type="curve" smooth="yes"/>
      <point x="269" y="1464" type="line"/>
      <point x="123" y="1464" type="line"/>
      <point x="123" y="570" type="line" smooth="yes"/>
      <point x="123" y="149"/>
      <point x="308" y="-24"/>
      <point x="670" y="-24" type="curve" smooth="yes"/>
      <point x="1046" y="-24"/>
      <point x="1223" y="157"/>
      <point x="1223" y="577" type="curve" smooth="yes"/>
      <point x="1223" y="1464" type="line"/>
    </contour>
    <contour>
      <point x="805" y="0" type="move" name="ogonek"/>
    </contour>
    <contour>
      <point x="709" y="1464" type="move" name="top"/>
    </contour>
  </outline>
</glyph>
<glyph name="V" format="1">
  <advance width="1164"/>
  <unicode hex="0056"/>
  <outline>
    <contour>
      <point x="1018" y="1464" type="line"/>
      <point x="586" y="193" type="line"/>
      <point x="143" y="1464" type="line"/>
      <point x="-8" y="1464" type="line"/>
      <point x="513" y="0" type="line"/>
      <point x="651" y="0" type="line"/>
      <point x="1162" y="1464" type="line"/>
    </contour>
  </outline>
</glyph>
<glyph name="W" format="1">
  <advance width="1813"/>
  <unicode hex="0057"/>
  <outline>
    <contour>
      <point x="437" y="0" type="line"/>
      <point x="548" y="0" type="line"/>
      <point x="915" y="1187" type="line"/>
      <point x="1252" y="0" type="line"/>
      <point x="1378" y="0" type="line"/>
      <point x="1793" y="1464" type="line"/>
      <point x="1654" y="1464" type="line"/>
      <point x="1324" y="217" type="line"/>
      <point x="977" y="1464" type="line"/>
      <point x="873" y="1464" type="line"/>
      <point x="498" y="234" type="line"/>
      <point x="172" y="1464" type="line"/>
      <point x="20" y="1464" type="line"/>
    </contour>
    <contour>
      <point x="927" y="1464" type="move" name="top"/>
    </contour>
  </outline>
</glyph>
<glyph name="X" format="1">
  <advance width="1245"/>
  <unicode hex="0058"/>
  <outline>
    <contour>
      <point x="6" y="0" type="line"/>
      <point x="173" y="0" type="line"/>
      <point x="620" y="643" type="line"/>
      <point x="1066" y="0" type="line"/>
      <point x="1239" y="0" type="line"/>
      <point x="707" y="769" type="line"/>
      <point x="1195" y="1464" type="line"/>
      <point x="1029" y="1464" type="line"/>
      <point x="625" y="887" type="line"/>
      <point x="226" y="1464" type="line"/>
      <point x="51" y="1464" type="line"/>
      <point x="538" y="761" type="line"/>
    </contour>
  </outline>
</glyph>
<glyph name="bracketleft" format="1">
  <advance width="708"/>
  <unicode hex="005B"/>
  <outline>
    <contour>
      <point x="132" y="-52" type="line"/>
      <point x="590" y="-52" type="line"/>
      <point x="590" y="55" type="line"/>
      <point x="277" y="55" type="line"/>
      <point x="277" y="1374" type="line"/>
      <point x="590" y="1374" type="line"/>
      <point x="590" y="1480" type="line"/>
      <point x="132" y="1480" type="line"/>
    </contour>
  </outline>
</glyph>
<glyph name="backslash" format="1">
  <advance width="632"/>
  <unicode hex="005C"/>
  <outline>
    <contour>
      <point x="443" y="-5" type="line"/>
      <point x="588" y="-5" type="line"/>
      <point x="191" y="1464" type="line"/>
      <point x="46" y="1464" type="line"/>
    </contour>
  </outline>
</glyph>
<glyph name="bracketright" format="1">
  <advance width="707"/>
  <unicode hex="005D"/>
  <outline>
    <contour>
      <point x="119" y="-52" type="line"/>
      <point x="576" y="-52" type="line"/>
      <point x="576" y="1480" type="line"/>
      <point x="119" y="1480" type="line"/>
      <point x="119" y="1374" type="line"/>
      <point x="431" y="1374" type="line"/>
      <point x="431" y="55" type="line"/>
      <point x="119" y="55" type="line"/>
    </contour>
  </outline>
</glyph>
<glyph name="grave" format="1">
  <advance width="496"/>
  <unicode hex="0060"/>
  <outline>
    <contour>
      <point x="363" y="1154" type="line"/>
      <point x="457" y="1155" type="line"/>
      <point x="252" y="1474" type="line"/>
      <point x="57" y="1474" type="line"/>
    </contour>
    <contour>
      <point x="404" y="1023" type="move" name="_top"/>
    </contour>
  </outline>
</glyph>
<glyph name="b" format="1">
  <advance width="1091"/>
  <unicode hex="0062"/>
  <outline>
    <contour>
      <point x="581" y="-24" type="curve" smooth="yes"/>
      <point x="844" y="-24"/>
      <point x="991" y="190"/>
      <point x="991" y="502" type="curve" smooth="yes"/>
      <point x="991" y="849"/>
      <point x="833" y="1044"/>
      <point x="588" y="1044" type="curve" smooth="yes"/>
      <point x="448" y="1044"/>
      <point x="340" y="978"/>
      <point x="274" y="864" type="curve"/>
      <point x="274" y="1473" type="line"/>
      <point x="132" y="1473" type="line"/>
      <point x="132" y="-1" type="line"/>
      <point x="242" y="-1" type="line"/>
      <point x="250" y="180" type="line"/>
      <point x="304" y="57"/>
      <point x="408" y="-24"/>
    </contour>
    <contour>
      <point x="576" y="77" type="curve" smooth="yes"/>
      <point x="355" y="77"/>
      <point x="269" y="205"/>
      <point x="269" y="520" type="curve" smooth="yes"/>
      <point x="269" y="811"/>
      <point x="391" y="943"/>
      <point x="577" y="943" type="curve" smooth="yes"/>
      <point x="750" y="943"/>
      <point x="847" y="792"/>
      <point x="847" y="514" type="curve" smooth="yes"/>
      <point x="847" y="229"/>
      <point x="751" y="77"/>
    </contour>
    <contour>
      <point x="594" y="1023" type="move" name="top"/>
    </contour>
  </outline>
</glyph>
<glyph name="c" format="1">
  <advance width="986"/>
  <unicode hex="0063"/>
  <outline>
    <contour>
      <point x="536" y="-24" type="curve" smooth="yes"/>
      <point x="702" y="-24"/>
      <point x="864" y="52"/>
      <point x="918" y="281" type="curve"/>
      <point x="806" y="315" type="line"/>
      <point x="764" y="158"/>
      <point x="672" y="78"/>
      <point x="539" y="78" type="curve" smooth="yes"/>
      <point x="331" y="78"/>
      <point x="245" y="255"/>
      <point x="245" y="512" type="curve" smooth="yes"/>
      <point x="245" y="767"/>
      <point x="327" y="942"/>
      <point x="539" y="942" type="curve" smooth="yes"/>
      <point x="669" y="942"/>
      <point x="760" y="865"/>
      <point x="802" y="704" type="curve"/>
      <point x="919" y="733" type="line"/>
      <point x="863" y="975"/>
      <point x="689" y="1044"/>
      <point x="535" y="1044" type="curve" smooth="yes"/>
      <point x="239" y="1044"/>
      <point x="100" y="817"/>
      <point x="100" y="509" type="curve" smooth="yes"/>
      <point x="100" y="197"/>
      <point x="244" y="-24"/>
    </contour>
    <contour>
      <point x="535" y="-1" type="move" name="bot"/>
    </contour>
    <contour>
      <point x="535" y="1023" type="move" name="top"/>
    </contour>
  </outline>
</glyph>
<glyph name="d" format="1">
  <advance width="1085"/>
  <unicode hex="0064"/>
  <outline>
    <contour>
      <point x="815" y="1474" type="line"/>
      <point x="815" y="874" type="line"/>
      <point x="750" y="982"/>
      <point x="646" y="1044"/>
      <point x="510" y="1044" type="curve" smooth="yes"/>
      <point x="262" y="1044"/>
      <point x="100" y="856"/>
      <point x="100" y="502" type="curve" smooth="yes"/>
      <point x="100" y="190"/>
      <point x="247" y="-24"/>
      <point x="510" y="-24" type="curve" smooth="yes"/>
      <point x="684" y="-24"/>
      <point x="785" y="61"/>
      <point x="839" y="183" type="curve"/>
      <point x="847" y="0" type="line"/>
      <point x="957" y="0" type="line"/>
      <point x="957" y="1474" type="line"/>
    </contour>
    <contour>
      <point x="704" y="942"/>
      <point x="822" y="811"/>
      <point x="822" y="520" type="curve" smooth="yes"/>
      <point x="822" y="205"/>
      <point x="710" y="68"/>
      <point x="515" y="78" type="curve" smooth="yes"/>
      <point x="340" y="87"/>
      <point x="244" y="229"/>
      <point x="244" y="514" type="curve" smooth="yes"/>
      <point x="244" y="791"/>
      <point x="341" y="942"/>
      <point x="518" y="942" type="curve" smooth="yes"/>
    </contour>
  </outline>
</glyph>
<glyph name="e" format="1">
  <advance width="1023"/>
  <unicode hex="0065"/>
  <outline>
    <contour>
      <point x="258" y="1044"/>
      <point x="100" y="824"/>
      <point x="100" y="512" type="curve" smooth="yes"/>
      <point x="100" y="229"/>
      <point x="234" y="-24"/>
      <point x="550" y="-24" type="curve" smooth="yes"/>
      <point x="711" y="-23"/>
      <point x="876" y="68"/>
      <point x="923" y="246" type="curve"/>
      <point x="816" y="270" type="line"/>
      <point x="781" y="160"/>
      <point x="687" y="78"/>
      <point x="547" y="78" type="curve" smooth="yes"/>
      <point x="335" y="78"/>
      <point x="242" y="269"/>
      <point x="242" y="500" type="curve"/>
      <point x="944" y="500" type="line"/>
      <point x="946" y="517"/>
      <point x="947" y="553"/>
      <point x="947" y="562" type="curve" smooth="yes"/>
      <point x="947" y="834"/>
      <point x="825" y="1044"/>
      <point x="540" y="1044" type="curve" smooth="yes"/>
    </contour>
    <contour>
      <point x="735" y="942"/>
      <point x="811" y="809"/>
      <point x="814" y="594" type="curve"/>
      <point x="242" y="594" type="line"/>
      <point x="258" y="782"/>
      <point x="353" y="942"/>
      <point x="539" y="942" type="curve" smooth="yes"/>
    </contour>
    <contour>
      <point x="635" y="0" type="move" name="ogonek"/>
    </contour>
    <contour>
      <point x="535" y="1023" type="move" name="top"/>
    </contour>
  </outline>
</glyph>
<glyph name="f" format="1">
  <advance width="623"/>
  <unicode hex="0066"/>
  <outline>
    <contour>
      <point x="223" y="0" type="line"/>
      <point x="365" y="0" type="line"/>
      <point x="365" y="917" type="line"/>
      <point x="565" y="917" type="line"/>
      <point x="565" y="1023" type="line"/>
      <point x="365" y="1023" type="line"/>
      <point x="365" y="1146" type="line" smooth="yes"/>
      <point x="365" y="1305"/>
      <point x="377" y="1366"/>
      <point x="469" y="1366" type="curve" smooth="yes"/>
      <point x="511" y="1366"/>
      <point x="546" y="1353"/>
      <point x="577" y="1338" type="curve"/>
      <point x="614" y="1428" type="line"/>
      <point x="584" y="1449"/>
      <point x="523" y="1474"/>
      <point x="455" y="1474" type="curve" smooth="yes"/>
      <point x="280" y="1474"/>
      <point x="223" y="1364"/>
      <point x="223" y="1142" type="curve" smooth="yes"/>
      <point x="223" y="1023" type="line"/>
      <point x="50" y="1023" type="line"/>
      <point x="50" y="917" type="line"/>
      <point x="223" y="917" type="line"/>
    </contour>
    <contour>
      <point x="310" y="1388" type="move" name="top"/>
    </contour>
  </outline>
</glyph>
<glyph name="g" format="1">
  <advance width="1097"/>
  <unicode hex="0067"/>
  <outline>
    <contour>
      <point x="261" y="1044"/>
      <point x="84" y="857"/>
      <point x="84" y="503" type="curve" smooth="yes"/>
      <point x="84" y="190"/>
      <point x="248" y="-24"/>
      <point x="512" y="-24" type="curve" smooth="yes"/>
      <point x="668" y="-24"/>
      <point x="767" y="44"/>
      <point x="826" y="147" type="curve"/>
      <point x="826" y="36" type="line" smooth="yes"/>
      <point x="826" y="-186"/>
      <point x="737" y="-322"/>
      <point x="535" y="-322" type="curve" smooth="yes"/>
      <point x="388" y="-322"/>
      <point x="304" y="-276"/>
      <point x="233" y="-189" type="curve"/>
      <point x="157" y="-268" type="line"/>
      <point x="223" y="-352"/>
      <point x="351" y="-431"/>
      <point x="536" y="-429" type="curve" smooth="yes"/>
      <point x="818" y="-426"/>
      <point x="967" y="-247"/>
      <point x="967" y="40" type="curve" smooth="yes"/>
      <point x="967" y="1023" type="line"/>
      <point x="845" y="1023" type="line"/>
      <point x="832" y="844" type="line"/>
      <point x="768" y="970"/>
      <point x="657" y="1044"/>
      <point x="509" y="1044" type="curve" smooth="yes"/>
    </contour>
    <contour>
      <point x="704" y="943"/>
      <point x="826" y="816"/>
      <point x="826" y="520" type="curve" smooth="yes"/>
      <point x="826" y="205"/>
      <point x="739" y="77"/>
      <point x="518" y="77" type="curve" smooth="yes"/>
      <point x="342" y="77"/>
      <point x="227" y="228"/>
      <point x="228" y="514" type="curve" smooth="yes"/>
      <point x="229" y="787"/>
      <point x="342" y="943"/>
      <point x="517" y="943" type="curve" smooth="yes"/>
    </contour>
    <contour>
      <point x="529" y="1023" type="move" name="top"/>
    </contour>
  </outline>
</glyph>
<glyph name="h" format="1">
  <advance width="1086"/>
  <unicode hex="0068"/>
  <outline>
    <contour>
      <point x="128" y="0" type="line"/>
      <point x="271" y="0" type="line"/>
      <point x="271" y="538" type="line" smooth="yes"/>
      <point x="278" y="767"/>
      <point x="359" y="942"/>
      <point x="604" y="942" type="curve" smooth="yes"/>
      <point x="781" y="942"/>
      <point x="824" y="812"/>
      <point x="824" y="603" type="curve" smooth="yes"/>
      <point x="824" y="0" type="line"/>
      <point x="966" y="0" type="line"/>
      <point x="966" y="584" type="line" smooth="yes"/>
      <point x="966" y="790"/>
      <point x="947" y="1044"/>
      <point x="624" y="1044" type="curve" smooth="yes"/>
      <point x="458" y="1044"/>
      <point x="339" y="975"/>
      <point x="270" y="849" type="curve"/>
      <point x="270" y="1474" type="line"/>
      <point x="128" y="1474" type="line"/>
    </contour>
    <contour>
      <point x="614" y="1188" type="move" name="top"/>
    </contour>
  </outline>
</glyph>
<glyph name="i" format="1">
  <advance width="424"/>
  <unicode hex="0069"/>
  <outline>
    <contour>
      <point x="145" y="1023" type="line"/>
      <point x="145" y="0" type="line"/>
      <point x="287" y="0" type="line"/>
      <point x="287" y="1023" type="line"/>
    </contour>
    <contour>
      <point x="145" y="1446" type="line"/>
      <point x="145" y="1231" type="line"/>
      <point x="289" y="1231" type="line"/>
      <point x="289" y="1446" type="line"/>
    </contour>
    <contour>
      <point x="220" y="1023" type="move" name="_top"/>
    </contour>
    <contour>
      <point x="221" y="0" type="move" name="ogonek"/>
    </contour>
    <contour>
      <point x="220" y="1023" type="move" name="top"/>
    </contour>
  </outline>
</glyph>
<glyph name="j" format="1">
  <advance width="482"/>
  <unicode hex="006A"/>
  <outline>
    <contour>
      <point x="214" y="1023" type="line"/>
      <point x="214" y="-91" type="line" smooth="yes"/>
      <point x="214" y="-182"/>
      <point x="177" y="-207"/>
      <point x="118" y="-207" type="curve" smooth="yes"/>
      <point x="65" y="-207"/>
      <point x="29" y="-189"/>
      <point x="2" y="-177" type="curve"/>
      <point x="-27" y="-284" type="line"/>
      <point x="13" y="-306"/>
      <point x="69" y="-325"/>
      <point x="140" y="-325" type="curve" smooth="yes"/>
      <point x="322" y="-325"/>
      <point x="356" y="-217"/>
      <point x="356" y="-12" type="curve" smooth="yes"/>
      <point x="356" y="1023" type="line"/>
    </contour>
    <contour>
      <point x="211" y="1446" type="line"/>
      <point x="211" y="1231" type="line"/>
      <point x="355" y="1231" type="line"/>
      <point x="355" y="1446" type="line"/>
    </contour>
    <contour>
      <point x="286" y="1023" type="move" name="_top"/>
    </contour>
    <contour>
      <point x="286" y="1023" type="move" name="top"/>
    </contour>
  </outline>
</glyph>
<glyph name="k" format="1">
  <advance width="1006"/>
  <unicode hex="006B"/>
  <outline>
    <contour>
      <point x="128" y="0" type="line"/>
      <point x="271" y="0" type="line"/>
      <point x="271" y="364" type="line"/>
      <point x="481" y="564" type="line"/>
      <point x="856" y="0" type="line"/>
      <point x="1016" y="0" type="line"/>
      <point x="573" y="652" type="line"/>
      <point x="963" y="1023" type="line"/>
      <point x="801" y="1023" type="line"/>
      <point x="271" y="516" type="line"/>
      <point x="270" y="1474" type="line"/>
      <point x="128" y="1474" type="line"/>
    </contour>
    <contour>
      <point x="512" y="0" type="move" name="bot"/>
    </contour>
    <contour>
      <point x="614" y="1188" type="move" name="top"/>
    </contour>
  </outline>
</glyph>
<glyph name="l" format="1">
  <advance width="418"/>
  <unicode hex="006C"/>
  <outline>
    <contour>
      <point x="133" y="0" type="line"/>
      <point x="275" y="0" type="line"/>
      <point x="275" y="1474" type="line"/>
      <point x="133" y="1474" type="line"/>
    </contour>
    <contour>
      <point x="212" y="0" type="move" name="bot"/>
    </contour>
    <contour>
      <point x="274" y="1023" type="move" name="caron.alt"/>
    </contour>
    <contour>
      <point x="226" y="1474" type="move" name="top"/>
    </contour>
  </outline>
</glyph>
<glyph name="m" format="1">
  <advance width="1785"/>
  <unicode hex="006D"/>
  <outline>
    <contour>
      <point x="1135" y="1044"/>
      <point x="1009" y="962"/>
      <point x="945" y="809" type="curve"/>
      <point x="913" y="939"/>
      <point x="831" y="1044"/>
      <point x="623" y="1044" type="curve" smooth="yes"/>
      <point x="457" y="1044"/>
      <point x="338" y="976"/>
      <point x="269" y="850" type="curve"/>
      <point x="269" y="1023" type="line"/>
      <point x="128" y="1023" type="line"/>
      <point x="128" y="0" type="line"/>
      <point x="270" y="0" type="line"/>
      <point x="269" y="532" type="line"/>
      <point x="276" y="764"/>
      <point x="360" y="943"/>
      <point x="603" y="943" type="curve" smooth="yes"/>
      <point x="780" y="943"/>
      <point x="823" y="812"/>
      <point x="823" y="603" type="curve" smooth="yes"/>
      <point x="823" y="0" type="line"/>
      <point x="965" y="0" type="line"/>
      <point x="965" y="494" type="line" smooth="yes"/>
      <point x="965" y="742"/>
      <point x="1043" y="943"/>
      <point x="1299" y="943" type="curve" smooth="yes"/>
      <point x="1476" y="943"/>
      <point x="1519" y="812"/>
      <point x="1519" y="603" type="curve" smooth="yes"/>
      <point x="1519" y="0" type="line"/>
      <point x="1661" y="0" type="line"/>
      <point x="1661" y="584" type="line" smooth="yes"/>
      <point x="1661" y="790"/>
      <point x="1642" y="1044"/>
      <point x="1319" y="1044" type="curve" smooth="yes"/>
    </contour>
    <contour>
      <point x="935" y="1023" type="move" name="top"/>
    </contour>
  </outline>
</glyph>
<glyph name="n" format="1">
  <advance width="1089"/>
  <unicode hex="006E"/>
  <outline>
    <contour>
      <point x="457" y="1044"/>
      <point x="338" y="980"/>
      <point x="269" y="852" type="curve"/>
      <point x="269" y="1023" type="line"/>
      <point x="128" y="1023" type="line"/>
      <point x="128" y="0" type="line"/>
      <point x="270" y="0" type="line"/>
      <point x="269" y="564" type="line"/>
      <point x="281" y="780"/>
      <point x="368" y="943"/>
      <point x="601" y="943" type="curve" smooth="yes"/>
      <point x="778" y="943"/>
      <point x="823" y="816"/>
      <point x="823" y="605" type="curve" smooth="yes"/>
      <point x="823" y="0" type="line"/>
      <point x="965" y="0" type="line"/>
      <point x="965" y="584" type="line" smooth="yes"/>
      <point x="965" y="787"/>
      <point x="944" y="1044"/>
      <point x="623" y="1044" type="curve" smooth="yes"/>
    </contour>
    <contour>
      <point x="591" y="1023" type="move" name="top"/>
    </contour>
  </outline>
</glyph>
<glyph name="o" format="1">
  <advance width="1080"/>
  <unicode hex="006F"/>
  <outline>
    <contour>
      <point x="275" y="1044"/>
      <point x="100" y="860"/>
      <point x="100" y="510" type="curve" smooth="yes"/>
      <point x="100" y="160"/>
      <point x="275" y="-24"/>
      <point x="540" y="-24" type="curve" smooth="yes"/>
      <point x="805" y="-24"/>
      <point x="980" y="160"/>
      <point x="980" y="510" type="curve" smooth="yes"/>
      <point x="980" y="860"/>
      <point x="805" y="1044"/>
      <point x="540" y="1044" type="curve" smooth="yes"/>
    </contour>
    <contour>
      <point x="774" y="943"/>
      <point x="835" y="721"/>
      <point x="835" y="510" type="curve" smooth="yes"/>
      <point x="835" y="299"/>
      <point x="774" y="77"/>
      <point x="540" y="77" type="curve" smooth="yes"/>
      <point x="306" y="77"/>
      <point x="245" y="299"/>
      <point x="245" y="510" type="curve" smooth="yes"/>
      <point x="245" y="721"/>
      <point x="306" y="943"/>
      <point x="540" y="943" type="curve" smooth="yes"/>
    </contour>
    <contour>
      <point x="631" y="0" type="move" name="ogonek"/>
    </contour>
    <contour>
      <point x="535" y="1023" type="move" name="top"/>
    </contour>
  </outline>
</glyph>
<glyph name="p" format="1">
  <advance width="1091"/>
  <unicode hex="0070"/>
  <outline>
    <contour>
      <point x="436" y="1044"/>
      <point x="328" y="973"/>
      <point x="265" y="850" type="curve"/>
      <point x="250" y="1023" type="line"/>
      <point x="128" y="1023" type="line"/>
      <point x="128" y="-350" type="line"/>
      <point x="270" y="-350" type="line"/>
      <point x="270" y="141" type="line"/>
      <point x="328" y="40"/>
      <point x="427" y="-24"/>
      <point x="581" y="-24" type="curve" smooth="yes"/>
      <point x="844" y="-24"/>
      <point x="991" y="190"/>
      <point x="991" y="502" type="curve" smooth="yes"/>
      <point x="991" y="856"/>
      <point x="829" y="1044"/>
      <point x="581" y="1044" type="curve" smooth="yes"/>
    </contour>
    <contour>
      <point x="750" y="943"/>
      <point x="847" y="791"/>
      <point x="847" y="514" type="curve" smooth="yes"/>
      <point x="847" y="229"/>
      <point x="751" y="77"/>
      <point x="576" y="77" type="curve" smooth="yes"/>
      <point x="358" y="77"/>
      <point x="269" y="187"/>
      <point x="269" y="542" type="curve" smooth="yes"/>
      <point x="275" y="818"/>
      <point x="392" y="943"/>
      <point x="573" y="943" type="curve" smooth="yes"/>
    </contour>
  </outline>
</glyph>
<glyph name="q" format="1">
  <advance width="1090"/>
  <unicode hex="0071"/>
  <outline>
    <contour>
      <point x="821" y="-350" type="line"/>
      <point x="963" y="-350" type="line"/>
      <point x="963" y="1023" type="line"/>
      <point x="841" y="1023" type="line"/>
      <point x="826" y="850" type="line"/>
      <point x="763" y="973"/>
      <point x="655" y="1044"/>
      <point x="510" y="1044" type="curve" smooth="yes"/>
      <point x="262" y="1044"/>
      <point x="100" y="856"/>
      <point x="100" y="502" type="curve" smooth="yes"/>
      <point x="100" y="190"/>
      <point x="247" y="-24"/>
      <point x="510" y="-24" type="curve" smooth="yes"/>
      <point x="664" y="-24"/>
      <point x="763" y="40"/>
      <point x="821" y="141" type="curve"/>
    </contour>
    <contour>
      <point x="515" y="77" type="curve" smooth="yes"/>
      <point x="340" y="77"/>
      <point x="244" y="229"/>
      <point x="244" y="514" type="curve" smooth="yes"/>
      <point x="244" y="791"/>
      <point x="341" y="943"/>
      <point x="518" y="943" type="curve" smooth="yes"/>
      <point x="707" y="943"/>
      <point x="822" y="826"/>
      <point x="822" y="490" type="curve" smooth="yes"/>
      <point x="822" y="197"/>
      <point x="729" y="77"/>
    </contour>
  </outline>
</glyph>
<glyph name="r" format="1">
  <advance width="634"/>
  <unicode hex="0072"/>
  <outline>
    <contour>
      <point x="128" y="0" type="line"/>
      <point x="270" y="0" type="line"/>
      <point x="269" y="556" type="line"/>
      <point x="276" y="733"/>
      <point x="359" y="903"/>
      <point x="578" y="903" type="curve"/>
      <point x="578" y="1029" type="line"/>
      <point x="442" y="1029"/>
      <point x="336" y="967"/>
      <point x="269" y="832" type="curve"/>
      <point x="269" y="1023" type="line"/>
      <point x="128" y="1023" type="line"/>
    </contour>
    <contour>
      <point x="212" y="0" type="move" name="bot"/>
    </contour>
    <contour>
      <point x="365" y="1023" type="move" name="top"/>
    </contour>
  </outline>
</glyph>
<glyph name="t" format="1">
  <advance width="656"/>
  <unicode hex="0074"/>
  <outline>
    <contour>
      <point x="455" y="-16" type="curve" smooth="yes"/>
      <point x="521" y="-16"/>
      <point x="590" y="7"/>
      <point x="625" y="29" type="curve"/>
      <point x="601" y="120" type="line"/>
      <point x="560" y="102"/>
      <point x="515" y="89"/>
      <point x="469" y="90" type="curve" smooth="yes"/>
      <point x="385" y="91"/>
      <point x="340" y="138"/>
      <point x="340" y="267" type="curve" smooth="yes"/>
      <point x="340" y="926" type="line"/>
      <point x="564" y="926" type="line"/>
      <point x="564" y="1023" type="line"/>
      <point x="340" y="1023" type="line"/>
      <point x="340" y="1387" type="line"/>
      <point x="204" y="1350" type="line"/>
      <point x="198" y="1023" type="line"/>
      <point x="45" y="1023" type="line"/>
      <point x="45" y="926" type="line"/>
      <point x="198" y="926" type="line"/>
      <point x="198" y="325" type="line" smooth="yes"/>
      <point x="198" y="79"/>
      <point x="279" y="-16"/>
    </contour>
    <contour>
      <point x="387" y="0" type="move" name="bot"/>
    </contour>
    <contour>
      <point x="284" y="1023" type="move" name="caron.alt"/>
    </contour>
    <contour>
      <point x="273" y="1263" type="move" name="top"/>
    </contour>
  </outline>
</glyph>
<glyph name="u" format="1">
  <advance width="1091"/>
  <unicode hex="0075"/>
  <outline>
    <contour>
      <point x="477" y="-24" type="curve" smooth="yes"/>
      <point x="644" y="-24"/>
      <point x="756" y="44"/>
      <point x="821" y="171" type="curve"/>
      <point x="821" y="0" type="line"/>
      <point x="963" y="0" type="line"/>
      <point x="962" y="1023" type="line"/>
      <point x="821" y="1023" type="line"/>
      <point x="820" y="517" type="line" smooth="yes"/>
      <point x="820" y="274"/>
      <point x="741" y="77"/>
      <point x="506" y="77" type="curve" smooth="yes"/>
      <point x="310" y="77"/>
      <point x="266" y="202"/>
      <point x="266" y="427" type="curve" smooth="yes"/>
      <point x="266" y="1023" type="line"/>
      <point x="124" y="1023" type="line"/>
      <point x="124" y="462" type="line" smooth="yes"/>
      <point x="124" y="253"/>
      <point x="137" y="-24"/>
    </contour>
    <contour>
      <point x="898" y="0" type="move" name="ogonek"/>
    </contour>
    <contour>
      <point x="540" y="1023" type="move" name="top"/>
    </contour>
  </outline>
</glyph>
<glyph name="v" format="1">
  <advance width="952"/>
  <unicode hex="0076"/>
  <outline>
    <contour>
      <point x="788" y="1023" type="line"/>
      <point x="476" y="174" type="line"/>
      <point x="167" y="1023" type="line"/>
      <point x="23" y="1023" type="line"/>
      <point x="406" y="0" type="line"/>
      <point x="532" y="0" type="line"/>
      <point x="926" y="1023" type="line"/>
    </contour>
  </outline>
</glyph>
<glyph name="x" format="1">
  <advance width="966"/>
  <unicode hex="0078"/>
  <outline>
    <contour>
      <point x="31" y="0" type="line"/>
      <point x="184" y="0" type="line"/>
      <point x="479" y="414" type="line"/>
      <point x="782" y="0" type="line"/>
      <point x="938" y="0" type="line"/>
      <point x="559" y="517" type="line"/>
      <point x="926" y="1023" type="line"/>
      <point x="773" y="1023" type="line"/>
      <point x="486" y="616" type="line"/>
      <point x="188" y="1023" type="line"/>
      <point x="32" y="1023" type="line"/>
      <point x="405" y="515" type="line"/>
    </contour>
  </outline>
</glyph>
<glyph name="y" format="1">
  <advance width="974"/>
  <unicode hex="0079"/>
  <outline>
    <contour>
      <point x="180" y="-320" type="curve" smooth="yes"/>
      <point x="396" y="-329"/>
      <point x="466" y="-191"/>
      <point x="575" y="97" type="curve" smooth="yes"/>
      <point x="926" y="1023" type="line"/>
      <point x="786" y="1023" type="line"/>
      <point x="489" y="211" type="line"/>
      <point x="191" y="1023" type="line"/>
      <point x="45" y="1023" type="line"/>
      <point x="417" y="64" type="line"/>
      <point x="397" y="4" type="line" smooth="yes"/>
      <point x="344" y="-155"/>
      <point x="293" y="-199"/>
      <point x="178" y="-199" type="curve" smooth="yes"/>
      <point x="152" y="-199"/>
      <point x="124" y="-196"/>
      <point x="91" y="-191" type="curve"/>
      <point x="75" y="-306" type="line"/>
      <point x="112" y="-316"/>
      <point x="147" y="-319"/>
    </contour>
    <contour>
      <point x="492" y="1023" type="move" name="top"/>
    </contour>
  </outline>
</glyph>
<glyph name="braceleft" format="1">
  <advance width="644"/>
  <unicode hex="007B"/>
  <outline>
    <contour>
      <point x="608" y="-130" type="curve"/>
      <point x="608" y="-40" type="line"/>
      <point x="350" y="-40"/>
      <point x="349" y="38"/>
      <point x="349" y="381" type="curve" smooth="yes"/>
      <point x="349" y="563"/>
      <point x="319" y="676"/>
      <point x="190" y="707" type="curve"/>
      <point x="319" y="738"/>
      <point x="349" y="851"/>
      <point x="349" y="1033" type="curve" smooth="yes"/>
      <point x="349" y="1376"/>
      <point x="350" y="1454"/>
      <point x="608" y="1454" type="curve"/>
      <point x="608" y="1544" type="line"/>
      <point x="228" y="1544"/>
      <point x="198" y="1402"/>
      <point x="198" y="1033" type="curve" smooth="yes"/>
      <point x="198" y="902"/>
      <point x="200" y="766"/>
      <point x="35" y="754" type="curve"/>
      <point x="35" y="660" type="line"/>
      <point x="200" y="648"/>
      <point x="198" y="512"/>
      <point x="198" y="381" type="curve" smooth="yes"/>
      <point x="198" y="12"/>
      <point x="228" y="-130"/>
    </contour>
  </outline>
</glyph>
<glyph name="bar" format="1">
  <advance width="416"/>
  <unicode hex="007C"/>
  <outline>
    <contour>
      <point x="281" y="-197" type="line"/>
      <point x="135" y="-197" type="line"/>
      <point x="135" y="1502" type="line"/>
      <point x="281" y="1502" type="line"/>
    </contour>
  </outline>
</glyph>
<glyph name="braceright" format="1">
  <advance width="644"/>
  <unicode hex="007D"/>
  <outline>
    <contour>
      <point x="35" y="-130" type="line"/>
      <point x="415" y="-130"/>
      <point x="445" y="12"/>
      <point x="445" y="381" type="curve" smooth="yes"/>
      <point x="445" y="512"/>
      <point x="443" y="648"/>
      <point x="608" y="660" type="curve"/>
      <point x="608" y="754" type="line"/>
      <point x="443" y="766"/>
      <point x="445" y="902"/>
      <point x="445" y="1033" type="curve" smooth="yes"/>
      <point x="445" y="1402"/>
      <point x="415" y="1544"/>
      <point x="35" y="1544" type="curve"/>
      <point x="35" y="1454" type="line"/>
      <point x="293" y="1454"/>
      <point x="294" y="1376"/>
      <point x="294" y="1033" type="curve" smooth="yes"/>
      <point x="294" y="851"/>
      <point x="324" y="738"/>
      <point x="453" y="707" type="curve"/>
      <point x="324" y="676"/>
      <point x="294" y="563"/>
      <point x="294" y="381" type="curve" smooth="yes"/>
      <point x="294" y="38"/>
      <point x="293" y="-40"/>
      <point x="35" y="-40" type="curve"/>
    </contour>
  </outline>
</glyph>
<glyph name="cent" format="1">
  <advance width="982"/>
  <unicode hex="00A2"/>
  <outline>
    <contour>
      <point x="484" y="-208" type="line"/>
      <point x="577" y="-208" type="line"/>
      <point x="577" y="-208"/>
      <point x="577" y="1253"/>
      <point x="577" y="1253" type="curve"/>
      <point x="484" y="1253" type="line"/>
    </contour>
    <component base="c"/>
  </outline>
</glyph>
<glyph name="sterling" format="1">
  <advance width="1168"/>
  <unicode hex="00A3"/>
  <outline>
    <contour>
      <point x="687" y="42" type="curve" smooth="yes"/>
      <point x="817" y="42"/>
      <point x="878.668" y="20.5116"/>
      <point x="979" y="0" type="curve"/>
      <point x="1007" y="116" type="line"/>
      <point x="939" y="139"/>
      <point x="822" y="168"/>
      <point x="742" y="168" type="curve" smooth="yes"/>
      <point x="618" y="168"/>
      <point x="493" y="159"/>
      <point x="310" y="92" type="curve"/>
      <point x="357" y="181"/>
      <point x="403" y="311"/>
      <point x="399" y="492" type="curve" smooth="yes"/>
      <point x="398" y="546"/>
      <point x="387" y="623"/>
      <point x="381" y="695" type="curve"/>
      <point x="773" y="695" type="line"/>
      <point x="773" y="797" type="line"/>
      <point x="374" y="797" type="line"/>
      <point x="369" y="854"/>
      <point x="355" y="955"/>
      <point x="355" y="1007" type="curve" smooth="yes"/>
      <point x="355" y="1257.85"/>
      <point x="447" y="1374"/>
      <point x="651" y="1374" type="curve" smooth="yes"/>
      <point x="733" y="1374"/>
      <point x="848" y="1350.87"/>
      <point x="884" y="1134" type="curve"/>
      <point x="1003" y="1152" type="line"/>
      <point x="971" y="1365.26"/>
      <point x="876" y="1491"/>
      <point x="645" y="1491" type="curve" smooth="yes"/>
      <point x="359" y="1491"/>
      <point x="215" y="1321.33"/>
      <point x="215" y="988" type="curve" smooth="yes"/>
      <point x="215" y="942"/>
      <point x="229" y="847"/>
      <point x="233" y="797" type="curve"/>
      <point x="66" y="797" type="line"/>
      <point x="66" y="695" type="line"/>
      <point x="242" y="695" type="line"/>
      <point x="250" y="634"/>
      <point x="266" y="558"/>
      <point x="266" y="509" type="curve" smooth="yes"/>
      <point x="266" y="312"/>
      <point x="219" y="178"/>
      <point x="159" y="57" type="curve"/>
      <point x="219" y="-26" type="line"/>
      <point x="419" y="28"/>
      <point x="566" y="42"/>
    </contour>
  </outline>
</glyph>
<glyph name="yen" format="1">
  <advance width="1162"/>
  <unicode hex="00A5"/>
  <outline>
    <contour>
      <point x="256" y="334" type="line"/>
      <point x="256" y="334"/>
      <point x="910" y="334"/>
      <point x="910" y="334" type="curve"/>
      <point x="910" y="420" type="line"/>
      <point x="910" y="420"/>
      <point x="256" y="420"/>
      <point x="256" y="420" type="curve"/>
    </contour>
    <contour>
      <point x="256" y="544" type="line"/>
      <point x="256" y="544"/>
      <point x="910" y="544"/>
      <point x="910" y="544" type="curve"/>
      <point x="910" y="630" type="line"/>
      <point x="910" y="630"/>
      <point x="256" y="630"/>
      <point x="256" y="630" type="curve"/>
    </contour>
    <component base="Y"/>
  </outline>
</glyph>
<glyph name="copyright" format="1">
  <advance width="1702"/>
  <unicode hex="00A9"/>
  <outline>
    <contour>
      <point x="850" y="1497" type="curve" smooth="yes"/>
      <point x="451" y="1497"/>
      <point x="123" y="1205"/>
      <point x="123" y="774" type="curve" smooth="yes"/>
      <point x="123" y="335"/>
      <point x="451" y="53"/>
      <point x="850" y="53" type="curve" smooth="yes"/>
      <point x="1251" y="53"/>
      <point x="1579" y="375"/>
      <point x="1579" y="774" type="curve" smooth="yes"/>
      <point x="1579" y="1175"/>
      <point x="1251" y="1497"/>
    </contour>
    <contour>
      <point x="179" y="773" type="curve" smooth="yes"/>
      <point x="179" y="1174"/>
      <point x="480" y="1452"/>
      <point x="850" y="1452" type="curve" smooth="yes"/>
      <point x="1221" y="1452"/>
      <point x="1523" y="1144"/>
      <point x="1523" y="773" type="curve" smooth="yes"/>
      <point x="1523" y="403"/>
      <point x="1220" y="98"/>
      <point x="849" y="98" type="curve" smooth="yes"/>
      <point x="479" y="98"/>
      <point x="179" y="363"/>
    </contour>
    <contour>
      <point x="525" y="779" type="curve"/>
      <point x="525" y="455"/>
      <point x="644" y="324"/>
      <point x="858" y="324" type="curve" smooth="yes"/>
      <point x="994" y="324"/>
      <point x="1096" y="393"/>
      <point x="1140" y="541" type="curve"/>
      <point x="1074" y="564" type="line"/>
      <point x="1041" y="461"/>
      <point x="981" y="395"/>
      <point x="862" y="395" type="curve" smooth="yes"/>
      <point x="670" y="395"/>
      <point x="606" y="524"/>
      <point x="606" y="779" type="curve"/>
      <point x="606" y="1034"/>
      <point x="670" y="1163"/>
      <point x="862" y="1163" type="curve" smooth="yes"/>
      <point x="981" y="1163"/>
      <point x="1041" y="1097"/>
      <point x="1074" y="994" type="curve"/>
      <point x="1140" y="1017" type="line"/>
      <point x="1096" y="1165"/>
      <point x="994" y="1234"/>
      <point x="858" y="1234" type="curve" smooth="yes"/>
      <point x="644" y="1234"/>
      <point x="525" y="1103"/>
    </contour>
  </outline>
</glyph>
<glyph name="ordfeminine" format="1">
  <advance width="946"/>
  <unicode hex="00AA"/>
  <outline>
    <contour>
      <point x="398" y="1474"/>
      <point x="260" y="1422"/>
      <point x="185" y="1340" type="curve"/>
      <point x="185" y="1340"/>
      <point x="263" y="1270"/>
      <point x="263" y="1269" type="curve"/>
      <point x="320" y="1325"/>
      <point x="410" y="1373"/>
      <point x="497" y="1373" type="curve" smooth="yes"/>
      <point x="592" y="1373"/>
      <point x="674" y="1321"/>
      <point x="674" y="1176" type="curve" smooth="yes"/>
      <point x="674" y="1110" type="line"/>
      <point x="577" y="1098" type="line" smooth="yes"/>
      <point x="336" y="1068"/>
      <point x="157" y="1018"/>
      <point x="157" y="804" type="curve" smooth="yes"/>
      <point x="157" y="656"/>
      <point x="272" y="583"/>
      <point x="398" y="583" type="curve" smooth="yes"/>
      <point x="527" y="583"/>
      <point x="605" y="630"/>
      <point x="676" y="693" type="curve"/>
      <point x="690" y="603" type="line"/>
      <point x="797" y="603" type="line"/>
      <point x="797" y="1147" type="line" smooth="yes"/>
      <point x="797" y="1365"/>
      <point x="689" y="1474"/>
      <point x="495" y="1474" type="curve" smooth="yes"/>
    </contour>
    <contour>
      <point x="674" y="771" type="line"/>
      <point x="599" y="704"/>
      <point x="475" y="653"/>
      <point x="394" y="664" type="curve" smooth="yes"/>
      <point x="295" y="677"/>
      <point x="265" y="745"/>
      <point x="271" y="830" type="curve" smooth="yes"/>
      <point x="278" y="934"/>
      <point x="359" y="982"/>
      <point x="572" y="1009" type="curve" smooth="yes"/>
      <point x="674" y="1022" type="line"/>
    </contour>
  </outline>
</glyph>
<glyph name="guillemotleft" format="1">
  <advance width="946"/>
  <unicode hex="00AB"/>
  <outline>
    <contour>
      <point x="498" y="250" type="line"/>
      <point x="498" y="391" type="line"/>
      <point x="151" y="650" type="line"/>
      <point x="498" y="907" type="line"/>
      <point x="498" y="1049" type="line"/>
      <point x="53" y="748" type="line"/>
      <point x="53" y="551" type="line"/>
    </contour>
    <contour>
      <point x="936" y="250" type="line"/>
      <point x="936" y="391" type="line"/>
      <point x="589" y="650" type="line"/>
      <point x="936" y="907" type="line"/>
      <point x="936" y="1049" type="line"/>
      <point x="491" y="748" type="line"/>
      <point x="491" y="551" type="line"/>
    </contour>
  </outline>
</glyph>
<glyph name="registered" format="1">
  <advance width="1702"/>
  <unicode hex="00AE"/>
  <outline>
    <contour>
      <point x="850" y="1497" type="curve" smooth="yes"/>
      <point x="451" y="1497"/>
      <point x="123" y="1205"/>
      <point x="123" y="774" type="curve" smooth="yes"/>
      <point x="123" y="335"/>
      <point x="451" y="53"/>
      <point x="850" y="53" type="curve" smooth="yes"/>
      <point x="1251" y="53"/>
      <point x="1579" y="375"/>
      <point x="1579" y="774" type="curve" smooth="yes"/>
      <point x="1579" y="1175"/>
      <point x="1251" y="1497"/>
    </contour>
    <contour>
      <point x="179" y="773" type="curve" smooth="yes"/>
      <point x="179" y="1174"/>
      <point x="480" y="1452"/>
      <point x="850" y="1452" type="curve" smooth="yes"/>
      <point x="1221" y="1452"/>
      <point x="1523" y="1144"/>
      <point x="1523" y="773" type="curve" smooth="yes"/>
      <point x="1523" y="403"/>
      <point x="1220" y="98"/>
      <point x="849" y="98" type="curve" smooth="yes"/>
      <point x="479" y="98"/>
      <point x="179" y="363"/>
    </contour>
    <contour>
      <point x="664" y="1184" type="line"/>
      <point x="664" y="846" type="line"/>
      <point x="852" y="846" type="line" smooth="yes"/>
      <point x="984" y="846"/>
      <point x="1092" y="864"/>
      <point x="1092" y="1015" type="curve" smooth="yes"/>
      <point x="1092" y="1169"/>
      <point x="960" y="1184"/>
      <point x="848" y="1184" type="curve" smooth="yes"/>
    </contour>
    <contour>
      <point x="857" y="1248" type="line" smooth="yes"/>
      <point x="1071" y="1248"/>
      <point x="1179" y="1173"/>
      <point x="1179" y="1017" type="curve" smooth="yes"/>
      <point x="1179" y="900"/>
      <point x="1120" y="825"/>
      <point x="1000" y="793" type="curve"/>
      <point x="1186" y="379" type="line"/>
      <point x="1095" y="379" type="line"/>
      <point x="916" y="779" type="line"/>
      <point x="661" y="779" type="line"/>
      <point x="661" y="381" type="line"/>
      <point x="578" y="381" type="line"/>
      <point x="578" y="1248" type="line"/>
    </contour>
  </outline>
</glyph>
<glyph name="macron" format="1">
  <advance width="724"/>
  <unicode hex="00AF"/>
  <outline>
    <contour>
      <point x="130" y="1259" type="line"/>
      <point x="130" y="1359" type="line"/>
      <point x="584" y="1359" type="line"/>
      <point x="584" y="1259" type="line"/>
    </contour>
    <contour>
      <point x="352" y="1023" type="move" name="_top"/>
    </contour>
  </outline>
</glyph>
<glyph name="acute" format="1">
  <advance width="496"/>
  <unicode hex="00B4"/>
  <outline>
    <contour>
      <point x="75" y="1155" type="line"/>
      <point x="169" y="1154" type="line"/>
      <point x="475" y="1474" type="line"/>
      <point x="280" y="1474" type="line"/>
    </contour>
    <contour>
      <point x="144" y="1023" type="move" name="_top"/>
    </contour>
  </outline>
</glyph>
<glyph name="cedilla" format="1">
  <advance width="435"/>
  <unicode hex="00B8"/>
  <outline>
    <contour>
      <point x="150" y="-256" type="line"/>
      <point x="150" y="-92" type="line"/>
      <point x="350" y="-92" type="line"/>
      <point x="350" y="-271" type="line" smooth="yes"/>
      <point x="350" y="-363"/>
      <point x="313" y="-472"/>
      <point x="214" y="-472" type="curve" smooth="yes"/>
      <point x="200" y="-472"/>
      <point x="186" y="-469"/>
      <point x="172" y="-463" type="curve"/>
      <point x="172" y="-398" type="line"/>
      <point x="187" y="-402"/>
      <point x="199" y="-406"/>
      <point x="209" y="-406" type="curve" smooth="yes"/>
      <point x="238" y="-406"/>
      <point x="249" y="-376"/>
      <point x="249" y="-256" type="curve"/>
    </contour>
    <contour>
      <point x="252" y="0" type="move" name="_bot"/>
    </contour>
  </outline>
</glyph>
<glyph name="AE" format="1">
  <advance width="2030"/>
  <unicode hex="00C6"/>
  <outline>
    <contour>
      <point x="-36" y="0" type="line"/>
      <point x="124" y="0" type="line"/>
      <point x="371" y="399" type="line"/>
      <point x="974" y="399" type="line"/>
      <point x="974" y="0" type="line"/>
      <point x="2015" y="0" type="line"/>
      <point x="2015" y="112" type="line"/>
      <point x="1118" y="112" type="line"/>
      <point x="1118" y="723" type="line"/>
      <point x="1842" y="723" type="line"/>
      <point x="1843" y="838" type="line"/>
      <point x="1118" y="838" type="line"/>
      <point x="1118" y="1352" type="line"/>
      <point x="2005" y="1352" type="line"/>
      <point x="2005" y="1464" type="line"/>
      <point x="870" y="1464" type="line"/>
    </contour>
    <contour>
      <point x="431" y="508" type="line"/>
      <point x="974" y="1406" type="line"/>
      <point x="974" y="508" type="line"/>
    </contour>
    <contour>
      <point x="1380" y="1464" type="move" name="top"/>
    </contour>
  </outline>
</glyph>
<glyph name="Eth" format="1">
  <advance width="1444"/>
  <unicode hex="00D0"/>
  <outline>
    <contour>
      <point x="0" y="788" type="line"/>
      <point x="0" y="702" type="line"/>
      <point x="550" y="702" type="line"/>
      <point x="550" y="788" type="line"/>
    </contour>
    <component base="D"/>
  </outline>
</glyph>
<glyph name="ae" format="1">
  <advance width="1667"/>
  <unicode hex="00E6"/>
  <outline>
    <contour>
      <point x="1047" y="1044"/>
      <point x="912" y="969"/>
      <point x="848" y="814" type="curve"/>
      <point x="804" y="977"/>
      <point x="695" y="1044"/>
      <point x="518" y="1044" type="curve" smooth="yes"/>
      <point x="366" y="1044"/>
      <point x="247" y="1006"/>
      <point x="133" y="927" type="curve"/>
      <point x="187" y="840" type="line"/>
      <point x="274" y="896"/>
      <point x="370" y="948"/>
      <point x="530" y="942" type="curve" smooth="yes"/>
      <point x="723" y="934"/>
      <point x="757" y="841"/>
      <point x="760" y="584" type="curve"/>
      <point x="563" y="581" type="line" smooth="yes"/>
      <point x="254" y="576"/>
      <point x="73" y="503"/>
      <point x="84" y="251" type="curve" smooth="yes"/>
      <point x="92" y="58"/>
      <point x="241" y="-24"/>
      <point x="429" y="-24" type="curve" smooth="yes"/>
      <point x="635" y="-24"/>
      <point x="777" y="50"/>
      <point x="831" y="220" type="curve"/>
      <point x="886" y="46"/>
      <point x="1053" y="-24"/>
      <point x="1195" y="-24" type="curve" smooth="yes"/>
      <point x="1379" y="-23"/>
      <point x="1515" y="83"/>
      <point x="1570" y="234" type="curve"/>
      <point x="1474" y="276" type="line"/>
      <point x="1444" y="204"/>
      <point x="1374" y="78"/>
      <point x="1198" y="78" type="curve" smooth="yes"/>
      <point x="989" y="78"/>
      <point x="906" y="250"/>
      <point x="900" y="494" type="curve"/>
      <point x="1584" y="506" type="line"/>
      <point x="1586" y="523"/>
      <point x="1587" y="563"/>
      <point x="1587" y="572" type="curve" smooth="yes"/>
      <point x="1587" y="844"/>
      <point x="1478" y="1044"/>
      <point x="1193" y="1044" type="curve" smooth="yes"/>
    </contour>
    <contour>
      <point x="760" y="414" type="line" smooth="yes"/>
      <point x="760" y="154"/>
      <point x="642" y="78"/>
      <point x="440" y="78" type="curve" smooth="yes"/>
      <point x="313" y="78"/>
      <point x="233" y="134"/>
      <point x="226" y="256" type="curve" smooth="yes"/>
      <point x="215" y="436"/>
      <point x="351" y="477"/>
      <point x="570" y="482" type="curve" smooth="yes"/>
      <point x="760" y="485" type="line"/>
    </contour>
    <contour>
      <point x="1375" y="942"/>
      <point x="1454" y="832"/>
      <point x="1464" y="600" type="curve"/>
      <point x="901" y="590" type="line"/>
      <point x="909" y="802"/>
      <point x="1020" y="942"/>
      <point x="1196" y="942" type="curve" smooth="yes"/>
    </contour>
  </outline>
</glyph>
<glyph name="eth" format="1">
  <advance width="1053"/>
  <unicode hex="00F0"/>
  <outline>
    <contour>
      <point x="518" y="-24" type="curve" smooth="yes"/>
      <point x="835" y="-24"/>
      <point x="959" y="213"/>
      <point x="959" y="529" type="curve" smooth="yes"/>
      <point x="959" y="775"/>
      <point x="903" y="1045"/>
      <point x="729" y="1225" type="curve"/>
      <point x="920" y="1349" type="line"/>
      <point x="867" y="1424" type="line"/>
      <point x="658" y="1288" type="line"/>
      <point x="541" y="1377"/>
      <point x="381" y="1432"/>
      <point x="169" y="1432" type="curve"/>
      <point x="169" y="1338" type="line"/>
      <point x="337" y="1338"/>
      <point x="464" y="1292"/>
      <point x="559" y="1223" type="curve"/>
      <point x="381" y="1107" type="line"/>
      <point x="434" y="1032" type="line"/>
      <point x="631" y="1161" type="line"/>
      <point x="743" y="1046"/>
      <point x="794" y="895"/>
      <point x="810" y="772" type="curve"/>
      <point x="730" y="867"/>
      <point x="617" y="909"/>
      <point x="503" y="908" type="curve" smooth="yes"/>
      <point x="294" y="906"/>
      <point x="94" y="746"/>
      <point x="94" y="454" type="curve" smooth="yes"/>
      <point x="94" y="208"/>
      <point x="231" y="-24"/>
    </contour>
    <contour>
      <point x="525" y="85" type="curve" smooth="yes"/>
      <point x="360" y="85"/>
      <point x="236" y="216"/>
      <point x="236" y="441" type="curve" smooth="yes"/>
      <point x="236" y="670"/>
      <point x="366" y="798"/>
      <point x="523" y="798" type="curve" smooth="yes"/>
      <point x="629" y="798"/>
      <point x="724" y="748"/>
      <point x="816" y="650" type="curve"/>
      <point x="822" y="624"/>
      <point x="823" y="535"/>
      <point x="823" y="511" type="curve" smooth="yes"/>
      <point x="823" y="262"/>
      <point x="736" y="85"/>
    </contour>
  </outline>
</glyph>
<glyph name="oslash" format="1">
  <advance width="1104"/>
  <unicode hex="00F8"/>
  <outline>
    <contour>
      <point x="254" y="-197" type="line"/>
      <point x="906" y="1178" type="line"/>
      <point x="834" y="1216" type="line"/>
      <point x="181" y="-159" type="line"/>
    </contour>
    <component base="o"/>
  </outline>
</glyph>
<glyph name="Dcroat" format="1">
  <advance width="1409"/>
  <unicode hex="0110"/>
  <outline>
    <contour>
      <point x="0" y="778" type="line"/>
      <point x="0" y="685" type="line"/>
      <point x="570" y="685" type="line"/>
      <point x="570" y="778" type="line"/>
    </contour>
    <component base="D"/>
  </outline>
</glyph>
<glyph name="dcroat" format="1">
  <advance width="1137"/>
  <unicode hex="0111"/>
  <outline>
    <contour>
      <point x="574" y="1287" type="line"/>
      <point x="574" y="1201" type="line"/>
      <point x="1094" y="1201" type="line"/>
      <point x="1094" y="1287" type="line"/>
    </contour>
    <component base="d"/>
  </outline>
</glyph>
<glyph name="hbar" format="1">
  <advance width="1117"/>
  <unicode hex="0127"/>
  <outline>
    <contour>
      <point x="0" y="1287" type="line"/>
      <point x="0" y="1201" type="line"/>
      <point x="520" y="1201" type="line"/>
      <point x="520" y="1287" type="line"/>
    </contour>
    <component base="h"/>
  </outline>
</glyph>
<glyph name="kgreenlandic" format="1">
  <advance width="1010"/>
  <unicode hex="0138"/>
  <outline>
    <contour>
      <point x="858" y="0" type="line"/>
      <point x="1018" y="0" type="line"/>
      <point x="585" y="604" type="line"/>
      <point x="959" y="1023" type="line"/>
      <point x="797" y="1023" type="line"/>
      <point x="203" y="372" type="line"/>
      <point x="203" y="231" type="line"/>
      <point x="490" y="527" type="line"/>
    </contour>
    <component base="lc_main_stem"/>
  </outline>
</glyph>
<glyph name="lslash" format="1">
  <advance width="421"/>
  <unicode hex="0142"/>
  <outline>
    <contour>
      <point x="-60" y="669" type="line"/>
      <point x="457" y="914" type="line"/>
      <point x="457" y="1032" type="line"/>
      <point x="-60" y="787" type="line"/>
    </contour>
    <component base="l"/>
  </outline>
</glyph>
<glyph name="eng" format="1">
  <advance width="1089"/>
  <unicode hex="014B"/>
  <outline>
    <contour>
      <point x="534" y="-410" type="line"/>
      <point x="816" y="-407"/>
      <point x="965" y="-228"/>
      <point x="965" y="-21" type="curve" smooth="yes"/>
      <point x="965" y="223" type="line"/>
      <point x="823" y="223" type="line"/>
      <point x="823" y="-25" type="line"/>
      <point x="823" y="-167"/>
      <point x="735" y="-303"/>
      <point x="533" y="-303" type="curve"/>
    </contour>
    <component base="n"/>
  </outline>
</glyph>
<glyph name="OE" format="1">
  <advance width="2171"/>
  <unicode hex="0152"/>
  <outline>
    <contour>
      <point x="707" y="-25" type="curve" smooth="yes"/>
      <point x="956" y="-25"/>
      <point x="1116" y="80"/>
      <point x="1164" y="260" type="curve"/>
      <point x="1164" y="0" type="line"/>
      <point x="2121" y="0" type="line"/>
      <point x="2121" y="113" type="line"/>
      <point x="1310" y="113" type="line"/>
      <point x="1310" y="723" type="line"/>
      <point x="1996" y="723" type="line"/>
      <point x="1996" y="838" type="line"/>
      <point x="1310" y="838" type="line"/>
      <point x="1310" y="1352" type="line"/>
      <point x="2110" y="1352" type="line"/>
      <point x="2110" y="1464" type="line"/>
      <point x="1163" y="1464" type="line"/>
      <point x="1164" y="1228" type="line"/>
      <point x="1100" y="1397"/>
      <point x="956" y="1491"/>
      <point x="711" y="1491" type="curve" smooth="yes"/>
      <point x="332" y="1491"/>
      <point x="112" y="1282"/>
      <point x="112" y="740" type="curve" smooth="yes"/>
      <point x="112" y="186"/>
      <point x="324" y="-25"/>
    </contour>
    <contour>
      <point x="708" y="93" type="curve" smooth="yes"/>
      <point x="370" y="93"/>
      <point x="265" y="302"/>
      <point x="265" y="741" type="curve" smooth="yes"/>
      <point x="265" y="1130"/>
      <point x="358" y="1371"/>
      <point x="710" y="1374" type="curve" smooth="yes"/>
      <point x="1061" y="1377"/>
      <point x="1164" y="1235"/>
      <point x="1164" y="700" type="curve" smooth="yes"/>
      <point x="1164" y="268"/>
      <point x="1043" y="93"/>
    </contour>
  </outline>
</glyph>
<glyph name="oe" format="1">
  <advance width="2103"/>
  <unicode hex="0153"/>
  <outline>
    <contour>
      <point x="558" y="-24" type="curve" smooth="yes"/>
      <point x="731" y="-24"/>
      <point x="858" y="74"/>
      <point x="919" y="235" type="curve"/>
      <point x="988" y="79"/>
      <point x="1112" y="-24"/>
      <point x="1304" y="-24" type="curve" smooth="yes"/>
      <point x="1465" y="-23"/>
      <point x="1630" y="68"/>
      <point x="1677" y="246" type="curve"/>
      <point x="1570" y="270" type="line"/>
      <point x="1535" y="160"/>
      <point x="1441" y="78"/>
      <point x="1301" y="78" type="curve" smooth="yes"/>
      <point x="1089" y="78"/>
      <point x="996" y="269"/>
      <point x="996" y="500" type="curve"/>
      <point x="1698" y="500" type="line"/>
      <point x="1700" y="517"/>
      <point x="1701" y="553"/>
      <point x="1701" y="562" type="curve" smooth="yes"/>
      <point x="1701" y="834"/>
      <point x="1579" y="1044"/>
      <point x="1294" y="1044" type="curve" smooth="yes"/>
      <point x="1117" y="1044"/>
      <point x="979" y="934"/>
      <point x="918" y="782" type="curve"/>
      <point x="863" y="943"/>
      <point x="730" y="1044"/>
      <point x="558" y="1044" type="curve" smooth="yes"/>
      <point x="293" y="1044"/>
      <point x="118" y="860"/>
      <point x="118" y="510" type="curve" smooth="yes"/>
      <point x="118" y="160"/>
      <point x="293" y="-24"/>
    </contour>
    <contour>
      <point x="558" y="77" type="curve" smooth="yes"/>
      <point x="324" y="77"/>
      <point x="263" y="299"/>
      <point x="263" y="510" type="curve" smooth="yes"/>
      <point x="263" y="721"/>
      <point x="324" y="943"/>
      <point x="558" y="943" type="curve" smooth="yes"/>
      <point x="792" y="943"/>
      <point x="853" y="721"/>
      <point x="853" y="510" type="curve" smooth="yes"/>
      <point x="853" y="299"/>
      <point x="792" y="77"/>
    </contour>
    <contour>
      <point x="996" y="594" type="line"/>
      <point x="1012" y="782"/>
      <point x="1107" y="942"/>
      <point x="1293" y="942" type="curve" smooth="yes"/>
      <point x="1489" y="942"/>
      <point x="1565" y="809"/>
      <point x="1568" y="594" type="curve"/>
    </contour>
    <contour>
      <point x="1719" y="0" type="move" name="ogonek"/>
    </contour>
    <contour>
      <point x="1619" y="1023" type="move" name="top"/>
    </contour>
  </outline>
</glyph>
<glyph name="Tbar" format="1">
  <advance width="1119"/>
  <unicode hex="0166"/>
  <outline>
    <contour>
      <point x="239" y="764" type="line"/>
      <point x="883" y="764" type="line"/>
      <point x="883" y="864" type="line"/>
      <point x="239" y="864" type="line"/>
    </contour>
    <component base="T"/>
    <contour>
      <point x="572" y="1464" type="move" name="_top"/>
    </contour>
  </outline>
</glyph>
<glyph name="tbar" format="1">
  <advance width="656"/>
  <unicode hex="0167"/>
  <outline>
    <contour>
      <point x="68" y="534" type="line"/>
      <point x="522" y="534" type="line"/>
      <point x="522" y="634" type="line"/>
      <point x="68" y="634" type="line"/>
    </contour>
    <component base="t"/>
  </outline>
</glyph>
<glyph name="florin" format="1">
  <advance width="1011"/>
  <unicode hex="0192"/>
  <outline>
    <contour>
      <point x="398" y="-168" type="line"/>
      <point x="626" y="808" type="line"/>
      <point x="839" y="808" type="line"/>
      <point x="856" y="892" type="line"/>
      <point x="644" y="892" type="line"/>
      <point x="729" y="1254" type="line" smooth="yes"/>
      <point x="752" y="1351"/>
      <point x="771" y="1452"/>
      <point x="869" y="1452" type="curve" smooth="yes"/>
      <point x="921" y="1452"/>
      <point x="947" y="1402"/>
      <point x="947" y="1301" type="curve"/>
      <point x="1080" y="1301" type="line"/>
      <point x="1080" y="1487"/>
      <point x="978" y="1534"/>
      <point x="862" y="1534" type="curve" smooth="yes"/>
      <point x="681" y="1534"/>
      <point x="603" y="1404"/>
      <point x="564" y="1241" type="curve" smooth="yes"/>
      <point x="481" y="892" type="line"/>
      <point x="319" y="892" type="line"/>
      <point x="302" y="808" type="line"/>
      <point x="467" y="808" type="line"/>
      <point x="238" y="-167" type="line"/>
    </contour>
  </outline>
</glyph>
<glyph name="apostrophemod" format="1">
  <advance width="600"/>
  <unicode hex="02BC"/>
  <outline>
    <contour>
      <point x="286" y="1154" type="line"/>
      <point x="428" y="1245"/>
      <point x="428" y="1384"/>
      <point x="433" y="1542" type="curve"/>
      <point x="433" y="1627" type="line"/>
      <point x="213" y="1627" type="line"/>
      <point x="213" y="1437" type="line"/>
      <point x="307" y="1424" type="line"/>
      <point x="304" y="1303"/>
      <point x="252" y="1236"/>
      <point x="227" y="1216" type="curve"/>
    </contour>
    <contour>
      <point x="320" y="1023" type="move" name="_top"/>
    </contour>
  </outline>
</glyph>
<glyph name="circumflex" format="1">
  <advance width="838"/>
  <unicode hex="02C6"/>
  <outline>
    <contour>
      <point x="315" y="1474" type="line"/>
      <point x="490" y="1474" type="line"/>
      <point x="675" y="1154" type="line"/>
      <point x="578" y="1154" type="line"/>
      <point x="402" y="1407" type="line"/>
      <point x="227" y="1154" type="line"/>
      <point x="130" y="1154" type="line"/>
    </contour>
    <contour>
      <point x="422" y="1023" type="move" name="_top"/>
    </contour>
  </outline>
</glyph>
<glyph name="caron" format="1">
  <advance width="838"/>
  <unicode hex="02C7"/>
  <outline>
    <contour>
      <point x="337" y="1154" type="line"/>
      <point x="152" y="1474" type="line"/>
      <point x="249" y="1474" type="line"/>
      <point x="424" y="1221" type="line"/>
      <point x="600" y="1474" type="line"/>
      <point x="697" y="1474" type="line"/>
      <point x="512" y="1154" type="line"/>
    </contour>
    <contour>
      <point x="428" y="1023" type="move" name="_top"/>
    </contour>
  </outline>
</glyph>
<glyph name="uni02C9" format="1">
  <advance width="600"/>
  <unicode hex="02C9"/>
  <outline>
    <contour>
      <point x="130" y="1259" type="line"/>
      <point x="584" y="1259" type="line"/>
      <point x="584" y="1359" type="line"/>
      <point x="130" y="1359" type="line"/>
    </contour>
    <contour>
      <point x="352" y="1023" type="move" name="_top"/>
    </contour>
  </outline>
</glyph>
<glyph name="breve" format="1">
  <advance width="805"/>
  <unicode hex="02D8"/>
  <outline>
    <contour>
      <point x="399" y="1243" type="curve" smooth="yes"/>
      <point x="252" y="1243"/>
      <point x="127" y="1318"/>
      <point x="123" y="1498" type="curve"/>
      <point x="239" y="1498" type="line"/>
      <point x="239" y="1391"/>
      <point x="300" y="1346"/>
      <point x="399" y="1346" type="curve" smooth="yes"/>
      <point x="499" y="1346"/>
      <point x="559" y="1391"/>
      <point x="559" y="1498" type="curve"/>
      <point x="675" y="1498" type="line"/>
      <point x="671" y="1318"/>
      <point x="546" y="1243"/>
    </contour>
    <contour>
      <point x="404" y="1023" type="move" name="_top"/>
    </contour>
  </outline>
</glyph>
<glyph name="dotaccent" format="1">
  <advance width="434"/>
  <unicode hex="02D9"/>
  <outline>
    <contour>
      <point x="146" y="1446" type="line"/>
      <point x="290" y="1446" type="line"/>
      <point x="290" y="1231" type="line"/>
      <point x="146" y="1231" type="line"/>
    </contour>
    <contour>
      <point x="221" y="1023" type="move" name="_top"/>
    </contour>
  </outline>
</glyph>
<glyph name="ring" format="1">
  <advance width="728"/>
  <unicode hex="02DA"/>
  <outline>
    <contour>
      <point x="361" y="1558" type="curve"/>
      <point x="455" y="1558"/>
      <point x="503" y="1481"/>
      <point x="503" y="1407" type="curve"/>
      <point x="503" y="1333"/>
      <point x="455" y="1256"/>
      <point x="361" y="1256" type="curve"/>
      <point x="267" y="1256"/>
      <point x="219" y="1333"/>
      <point x="219" y="1407" type="curve"/>
      <point x="219" y="1481"/>
      <point x="267" y="1558"/>
    </contour>
    <contour>
      <point x="361" y="1172" type="curve"/>
      <point x="509" y="1172"/>
      <point x="601" y="1283"/>
      <point x="601" y="1407" type="curve"/>
      <point x="601" y="1531"/>
      <point x="509" y="1642"/>
      <point x="361" y="1642" type="curve"/>
      <point x="213" y="1642"/>
      <point x="121" y="1531"/>
      <point x="121" y="1407" type="curve"/>
      <point x="121" y="1283"/>
      <point x="213" y="1172"/>
    </contour>
    <contour>
      <point x="364" y="1023" type="move" name="_top"/>
    </contour>
  </outline>
</glyph>
<glyph name="ogonek" format="1">
  <advance width="462"/>
  <unicode hex="02DB"/>
  <outline>
    <contour>
      <point x="346" y="-361" type="curve"/>
      <point x="346" y="-280" type="line"/>
      <point x="263" y="-299"/>
      <point x="235" y="-268"/>
      <point x="235" y="-219" type="curve" smooth="yes"/>
      <point x="235" y="-161"/>
      <point x="281" y="-74"/>
      <point x="315" y="0" type="curve"/>
      <point x="244" y="0" type="line"/>
      <point x="179" y="-88"/>
      <point x="120" y="-166"/>
      <point x="117" y="-241" type="curve" smooth="yes"/>
      <point x="114" y="-321"/>
      <point x="188" y="-400"/>
    </contour>
    <contour>
      <point x="282" y="0" type="move" name="_ogonek"/>
    </contour>
  </outline>
</glyph>
<glyph name="tilde" format="1">
  <advance width="798"/>
  <unicode hex="02DC"/>
  <outline>
    <contour>
      <point x="606" y="1200"/>
      <point x="663" y="1225"/>
      <point x="663" y="1357" type="curve" smooth="yes"/>
      <point x="663" y="1368"/>
      <point x="663" y="1380"/>
      <point x="662" y="1393" type="curve"/>
      <point x="565" y="1393" type="line"/>
      <point x="565" y="1337"/>
      <point x="561" y="1297"/>
      <point x="530" y="1297" type="curve" smooth="yes"/>
      <point x="486" y="1297"/>
      <point x="310" y="1389"/>
      <point x="232" y="1389" type="curve" smooth="yes"/>
      <point x="186" y="1389"/>
      <point x="113" y="1368"/>
      <point x="113" y="1244" type="curve" smooth="yes"/>
      <point x="113" y="1230"/>
      <point x="114" y="1215"/>
      <point x="116" y="1198" type="curve"/>
      <point x="212" y="1198" type="line"/>
      <point x="212" y="1258"/>
      <point x="225" y="1286"/>
      <point x="249" y="1286" type="curve"/>
      <point x="308" y="1282"/>
      <point x="454" y="1200"/>
      <point x="548" y="1200" type="curve" smooth="yes"/>
    </contour>
    <contour>
      <point x="410" y="1023" type="move" name="_top"/>
    </contour>
  </outline>
</glyph>
<glyph name="hungarumlaut" format="1">
  <advance width="745"/>
  <unicode hex="02DD"/>
  <outline>
    <contour>
      <point x="87" y="1132" type="line"/>
      <point x="153" y="1132" type="line"/>
      <point x="381" y="1452" type="line"/>
      <point x="192" y="1452" type="line"/>
    </contour>
    <contour>
      <point x="355" y="1132" type="line"/>
      <point x="428" y="1132" type="line"/>
      <point x="685" y="1452" type="line"/>
      <point x="490" y="1452" type="line"/>
    </contour>
    <contour>
      <point x="246" y="1023" type="move" name="_top"/>
    </contour>
  </outline>
</glyph>
<glyph name="dblgravecmb" format="1">
  <advance width="745"/>
  <unicode hex="030F"/>
  <outline>
    <contour>
      <point x="335" y="1154" type="line"/>
      <point x="408" y="1154" type="line"/>
      <point x="273" y="1474" type="line"/>
      <point x="78" y="1474" type="line"/>
    </contour>
    <contour>
      <point x="610" y="1154" type="line"/>
      <point x="676" y="1154" type="line"/>
      <point x="571" y="1474" type="line"/>
      <point x="382" y="1474" type="line"/>
    </contour>
    <contour>
      <point x="520" y="1023" type="move" name="_top"/>
    </contour>
  </outline>
</glyph>
<glyph name="uni0311" format="1">
  <advance width="805"/>
  <unicode hex="0311"/>
  <outline>
    <contour>
      <point x="402" y="1437" type="curve" smooth="yes"/>
      <point x="549" y="1437"/>
      <point x="674" y="1362"/>
      <point x="678" y="1182" type="curve"/>
      <point x="562" y="1182" type="line"/>
      <point x="562" y="1289"/>
      <point x="501" y="1334"/>
      <point x="402" y="1334" type="curve" smooth="yes"/>
      <point x="302" y="1334"/>
      <point x="242" y="1289"/>
      <point x="242" y="1182" type="curve"/>
      <point x="126" y="1182" type="line"/>
      <point x="130" y="1362"/>
      <point x="255" y="1437"/>
    </contour>
    <contour>
      <point x="410" y="1023" type="move" name="_top"/>
    </contour>
  </outline>
</glyph>
<glyph name="commaturnedabovecomb" format="1">
  <advance width="600"/>
  <unicode hex="0312"/>
  <outline>
    <contour>
      <point x="213" y="1196" type="line"/>
      <point x="433" y="1196" type="line"/>
      <point x="433" y="1386" type="line"/>
      <point x="339" y="1399" type="line"/>
      <point x="342" y="1520"/>
      <point x="394" y="1587"/>
      <point x="419" y="1607" type="curve"/>
      <point x="360" y="1669" type="line"/>
      <point x="218" y="1578"/>
      <point x="218" y="1439"/>
      <point x="213" y="1281" type="curve"/>
    </contour>
    <contour>
      <point x="320" y="1023" type="move" name="_top"/>
    </contour>
  </outline>
</glyph>
<glyph name="commaaccent" format="1">
  <advance width="409"/>
  <unicode hex="0326"/>
  <outline>
    <contour>
      <point x="299" y="-101" type="line"/>
      <point x="99" y="-101" type="line"/>
      <point x="99" y="-269" type="line"/>
      <point x="209" y="-269" type="line"/>
      <point x="208" y="-320"/>
      <point x="200" y="-433"/>
      <point x="142" y="-476" type="curve"/>
      <point x="189" y="-498" type="line"/>
      <point x="232" y="-498"/>
      <point x="299" y="-380"/>
      <point x="299" y="-261" type="curve" smooth="yes"/>
    </contour>
    <contour>
      <point x="203" y="0" type="move" name="_bot"/>
    </contour>
  </outline>
</glyph>
<glyph name="Delta" format="1">
  <advance width="1332"/>
  <unicode hex="0394"/>
  <outline>
    <contour>
      <point x="114" y="0" type="line"/>
      <point x="1243" y="0" type="line"/>
      <point x="722" y="1482" type="line"/>
      <point x="635" y="1482" type="line"/>
    </contour>
    <contour>
      <point x="258" y="116" type="line"/>
      <point x="662" y="1307" type="line"/>
      <point x="1072" y="116" type="line"/>
    </contour>
  </outline>
</glyph>
<glyph name="Sigma" format="1">
  <advance width="1179"/>
  <unicode hex="03A3"/>
  <outline>
    <contour>
      <point x="1089" y="0" type="line"/>
      <point x="1089" y="109" type="line"/>
      <point x="218" y="109" type="line"/>
      <point x="759" y="684" type="line"/>
      <point x="759" y="755" type="line"/>
      <point x="249" y="1358" type="line"/>
      <point x="1089" y="1358" type="line"/>
      <point x="1089" y="1464" type="line"/>
      <point x="89" y="1464" type="line"/>
      <point x="89" y="1359" type="line"/>
      <point x="612" y="722" type="line"/>
      <point x="89" y="128" type="line"/>
      <point x="89" y="0" type="line"/>
    </contour>
  </outline>
</glyph>
<glyph name="Omega" format="1">
  <advance width="1758"/>
  <unicode hex="03A9"/>
  <outline>
    <contour>
      <point x="120" y="0" type="line"/>
      <point x="757" y="0" type="line"/>
      <point x="757" y="105" type="line"/>
      <point x="458" y="233"/>
      <point x="304" y="508"/>
      <point x="304" y="779" type="curve"/>
      <point x="304" y="1153"/>
      <point x="593" y="1341"/>
      <point x="879" y="1341" type="curve"/>
      <point x="1166" y="1341"/>
      <point x="1454" y="1153"/>
      <point x="1454" y="779" type="curve"/>
      <point x="1454" y="508"/>
      <point x="1300" y="233"/>
      <point x="1001" y="105" type="curve"/>
      <point x="1001" y="0" type="line"/>
      <point x="1638" y="0" type="line"/>
      <point x="1638" y="103" type="line"/>
      <point x="1162" y="103" type="line"/>
      <point x="1463" y="252"/>
      <point x="1611" y="522"/>
      <point x="1611" y="779" type="curve"/>
      <point x="1611" y="1255"/>
      <point x="1246" y="1491"/>
      <point x="879" y="1491" type="curve"/>
      <point x="512" y="1491"/>
      <point x="147" y="1255"/>
      <point x="147" y="779" type="curve"/>
      <point x="147" y="522"/>
      <point x="295" y="252"/>
      <point x="596" y="103" type="curve"/>
      <point x="120" y="103" type="line"/>
    </contour>
  </outline>
</glyph>
<glyph name="mu" format="1">
  <advance width="1119"/>
  <unicode hex="03BC"/>
  <outline>
    <contour>
      <point x="121" y="1023" type="line"/>
      <point x="121" y="-224" type="line"/>
      <point x="263" y="-224" type="line"/>
      <point x="263" y="1023" type="line"/>
    </contour>
    <component base="u"/>
  </outline>
</glyph>
<glyph name="quoteright" format="1">
  <advance width="330"/>
  <unicode hex="2019"/>
  <outline>
    <contour>
      <point x="160" y="991" type="line"/>
      <point x="330" y="1104"/>
      <point x="306" y="1284"/>
      <point x="310" y="1464" type="curve"/>
      <point x="90" y="1464" type="line"/>
      <point x="90" y="1292" type="line" smooth="yes"/>
      <point x="90" y="1291"/>
      <point x="180" y="1273"/>
      <point x="180" y="1274" type="curve"/>
      <point x="177" y="1154"/>
      <point x="126" y="1087"/>
      <point x="101" y="1064" type="curve"/>
    </contour>
  </outline>
</glyph>
<glyph name="quotesinglbase" format="1">
  <advance width="436"/>
  <unicode hex="201A"/>
  <outline>
    <contour>
      <point x="118" y="-81" type="curve" smooth="yes"/>
      <point x="118" y="93" type="line"/>
      <point x="350" y="93" type="line"/>
      <point x="346" y="-87"/>
      <point x="349" y="-269"/>
      <point x="189" y="-382" type="curve"/>
      <point x="120" y="-319" type="line"/>
      <point x="145" y="-296"/>
      <point x="196" y="-219"/>
      <point x="199" y="-99" type="curve"/>
      <point x="199" y="-99"/>
      <point x="118" y="-82"/>
    </contour>
  </outline>
</glyph>
<glyph name="quotedblleft" format="1">
  <advance width="630"/>
  <unicode hex="201C"/>
  <outline>
    <contour>
      <point x="479" y="1473" type="curve"/>
      <point x="538" y="1410" type="line"/>
      <point x="513" y="1387"/>
      <point x="460" y="1319"/>
      <point x="457" y="1196" type="curve"/>
      <point x="560" y="1183" type="line"/>
      <point x="560" y="995" type="line"/>
      <point x="340" y="995" type="line"/>
      <point x="340" y="1084" type="line"/>
      <point x="345" y="1242"/>
      <point x="345" y="1378"/>
    </contour>
    <contour>
      <point x="165" y="1473" type="curve"/>
      <point x="224" y="1410" type="line"/>
      <point x="199" y="1387"/>
      <point x="146" y="1319"/>
      <point x="143" y="1197" type="curve"/>
      <point x="240" y="1183" type="line"/>
      <point x="240" y="995" type="line"/>
      <point x="20" y="995" type="line"/>
      <point x="20" y="1084" type="line" smooth="yes"/>
      <point x="20" y="1240"/>
      <point x="31" y="1379"/>
    </contour>
  </outline>
</glyph>
<glyph name="quotedblright" format="1">
  <advance width="631"/>
  <unicode hex="201D"/>
  <outline>
    <contour>
      <point x="391" y="1292" type="line"/>
      <point x="391" y="1464" type="line"/>
      <point x="611" y="1464" type="line"/>
      <point x="606" y="1285"/>
      <point x="612" y="1103"/>
      <point x="453" y="991" type="curve"/>
      <point x="392" y="1054" type="line"/>
      <point x="417" y="1075"/>
      <point x="469" y="1152"/>
      <point x="472" y="1273" type="curve"/>
    </contour>
    <contour>
      <point x="60" y="1292" type="curve" smooth="yes"/>
      <point x="60" y="1464" type="line"/>
      <point x="281" y="1464" type="line"/>
      <point x="277" y="1284"/>
      <point x="300" y="1104"/>
      <point x="140" y="991" type="curve"/>
      <point x="70" y="1054" type="line"/>
      <point x="96" y="1077"/>
      <point x="147" y="1154"/>
      <point x="150" y="1274" type="curve"/>
      <point x="150" y="1273"/>
      <point x="60" y="1291"/>
    </contour>
  </outline>
</glyph>
<glyph name="quotedblbase" format="1">
  <advance width="744"/>
  <unicode hex="201E"/>
  <outline>
    <contour>
      <point x="159" y="-382" type="line"/>
      <point x="319" y="-269"/>
      <point x="316" y="-87"/>
      <point x="320" y="93" type="curve"/>
      <point x="86" y="93" type="line"/>
      <point x="86" y="-81" type="line"/>
      <point x="85" y="-82"/>
      <point x="169" y="-99"/>
      <point x="169" y="-99" type="curve"/>
      <point x="166" y="-219"/>
      <point x="115" y="-296"/>
      <point x="90" y="-319" type="curve"/>
    </contour>
    <contour>
      <point x="507" y="-382" type="line"/>
      <point x="667" y="-269"/>
      <point x="664" y="-87"/>
      <point x="668" y="93" type="curve"/>
      <point x="434" y="93" type="line"/>
      <point x="434" y="-81" type="line" smooth="yes"/>
      <point x="434" y="-82"/>
      <point x="517" y="-99"/>
      <point x="517" y="-99" type="curve"/>
      <point x="514" y="-219"/>
      <point x="463" y="-296"/>
      <point x="438" y="-319" type="curve"/>
    </contour>
  </outline>
</glyph>
<glyph name="dagger" format="1">
  <advance width="1119"/>
  <unicode hex="2020"/>
  <outline>
    <contour>
      <point x="493" y="0" type="line"/>
      <point x="639" y="0" type="line"/>
      <point x="639" y="962" type="line"/>
      <point x="980" y="962" type="line"/>
      <point x="980" y="1074" type="line"/>
      <point x="639" y="1074" type="line"/>
      <point x="639" y="1464" type="line"/>
      <point x="493" y="1464" type="line"/>
      <point x="493" y="1074" type="line"/>
      <point x="137" y="1074" type="line"/>
      <point x="137" y="962" type="line"/>
      <point x="493" y="962" type="line"/>
    </contour>
  </outline>
</glyph>
<glyph name="daggerdbl" format="1">
  <advance width="1117"/>
  <unicode hex="2021"/>
  <outline>
    <contour>
      <point x="980" y="962" type="line"/>
      <point x="980" y="1074" type="line"/>
      <point x="639" y="1074" type="line"/>
      <point x="639" y="1464" type="line"/>
      <point x="493" y="1464" type="line"/>
      <point x="493" y="1074" type="line"/>
      <point x="137" y="1074" type="line"/>
      <point x="137" y="962" type="line"/>
      <point x="493" y="962" type="line"/>
      <point x="493" y="603" type="line"/>
      <point x="137" y="603" type="line"/>
      <point x="137" y="492" type="line"/>
      <point x="493" y="492" type="line"/>
      <point x="493" y="0" type="line"/>
      <point x="639" y="0" type="line"/>
      <point x="639" y="492" type="line"/>
      <point x="979" y="492" type="line"/>
      <point x="979" y="603" type="line"/>
      <point x="639" y="603" type="line"/>
      <point x="639" y="962" type="line"/>
    </contour>
  </outline>
</glyph>
<glyph name="perthousand" format="1">
  <advance width="2425"/>
  <unicode hex="2030"/>
  <outline>
    <contour>
      <point x="2068" y="93" type="curve"/>
      <point x="1936" y="93"/>
      <point x="1871" y="212"/>
      <point x="1871" y="348" type="curve"/>
      <point x="1871" y="484"/>
      <point x="1936" y="604"/>
      <point x="2068" y="604" type="curve"/>
      <point x="2200" y="604"/>
      <point x="2266" y="487"/>
      <point x="2266" y="348" type="curve"/>
      <point x="2266" y="212"/>
      <point x="2200" y="93"/>
    </contour>
    <contour>
      <point x="2068" y="0" type="curve"/>
      <point x="2271" y="0"/>
      <point x="2375" y="175"/>
      <point x="2375" y="348" type="curve"/>
      <point x="2375" y="521"/>
      <point x="2271" y="696"/>
      <point x="2068" y="696" type="curve"/>
      <point x="1865" y="696"/>
      <point x="1761" y="521"/>
      <point x="1761" y="348" type="curve"/>
      <point x="1761" y="175"/>
      <point x="1865" y="0"/>
    </contour>
    <component base="percent"/>
  </outline>
</glyph>
<glyph name="guilsinglright" format="1">
  <advance width="528"/>
  <unicode hex="203A"/>
  <outline>
    <contour>
      <point x="51" y="251" type="line"/>
      <point x="435" y="552" type="line"/>
      <point x="435" y="749" type="line"/>
      <point x="51" y="1050" type="line"/>
      <point x="51" y="909" type="line"/>
      <point x="337" y="650" type="line"/>
      <point x="51" y="393" type="line"/>
    </contour>
  </outline>
</glyph>
<glyph name="fraction" format="1">
  <advance width="1548"/>
  <unicode hex="2044"/>
  <outline>
    <contour>
      <point x="195" y="-14" type="line"/>
      <point x="1430" y="1415" type="line"/>
      <point x="1354" y="1481" type="line"/>
      <point x="118" y="52" type="line"/>
    </contour>
  </outline>
</glyph>
<glyph name="foursuperior" format="1">
  <advance width="1441"/>
  <unicode hex="2074"/>
  <outline>
    <contour>
      <point x="875" y="1006" type="line"/>
      <point x="875" y="1465" type="line"/>
      <point x="729" y="1465" type="line"/>
      <point x="409" y="992" type="line"/>
      <point x="409" y="924" type="line"/>
      <point x="760" y="924" type="line"/>
      <point x="760" y="772" type="line"/>
      <point x="875" y="772" type="line"/>
      <point x="875" y="924" type="line"/>
      <point x="975" y="924" type="line"/>
      <point x="975" y="1006" type="line"/>
    </contour>
    <contour>
      <point x="523" y="1006" type="line"/>
      <point x="760" y="1357" type="line"/>
      <point x="760" y="1006" type="line"/>
    </contour>
  </outline>
</glyph>
<glyph name="Euro" format="1">
  <advance width="1275"/>
  <unicode hex="20AC"/>
  <outline>
    <contour>
      <point x="-43" y="553" type="line"/>
      <point x="-43" y="553"/>
      <point x="691" y="553"/>
      <point x="691" y="553" type="curve"/>
      <point x="691" y="649" type="line"/>
      <point x="691" y="649"/>
      <point x="-43" y="649"/>
      <point x="-43" y="649" type="curve"/>
    </contour>
    <contour>
      <point x="-43" y="796" type="line"/>
      <point x="-43" y="796"/>
      <point x="691" y="796"/>
      <point x="691" y="796" type="curve"/>
      <point x="691" y="892" type="line"/>
      <point x="691" y="892"/>
      <point x="-43" y="892"/>
      <point x="-43" y="892" type="curve"/>
    </contour>
    <component base="C"/>
  </outline>
</glyph>
<glyph name="euro" format="1">
  <advance width="1275"/>
  <unicode hex="20AC"/>
  <outline>
    <contour>
      <point x="-43" y="796"/>
      <point x="691" y="796"/>
      <point x="691" y="796" type="curve"/>
      <point x="691" y="892" type="line"/>
      <point x="691" y="892"/>
      <point x="-43" y="892"/>
      <point x="-43" y="892" type="curve"/>
      <point x="-43" y="796" type="line"/>
    </contour>
    <contour>
      <point x="691" y="553" type="curve"/>
      <point x="691" y="649" type="line"/>
      <point x="691" y="649"/>
      <point x="-43" y="649"/>
      <point x="-43" y="649" type="curve"/>
      <point x="-43" y="553" type="line"/>
      <point x="-43" y="553"/>
      <point x="691" y="553"/>
    </contour>
    <component base="C"/>
  </outline>
</glyph>
<glyph name="uni2113" format="1">
  <advance width="930"/>
  <unicode hex="2113"/>
  <outline>
    <contour>
      <point x="408" y="1549"/>
      <point x="304" y="1452"/>
      <point x="304" y="1225" type="curve" smooth="yes"/>
      <point x="304" y="904" type="line"/>
      <point x="94" y="734" type="line"/>
      <point x="157" y="643" type="line"/>
      <point x="304" y="760" type="line"/>
      <point x="304" y="298" type="line" smooth="yes"/>
      <point x="304" y="61"/>
      <point x="377" y="-16"/>
      <point x="538" y="-16" type="curve" smooth="yes"/>
      <point x="603" y="-16"/>
      <point x="673" y="1"/>
      <point x="738" y="32" type="curve"/>
      <point x="712" y="123" type="line"/>
      <point x="664" y="103"/>
      <point x="608" y="89"/>
      <point x="573" y="89" type="curve" smooth="yes"/>
      <point x="499" y="89"/>
      <point x="446" y="111"/>
      <point x="446" y="259" type="curve" smooth="yes"/>
      <point x="446" y="858" type="line"/>
      <point x="582" y="966" type="line" smooth="yes"/>
      <point x="731" y="1085"/>
      <point x="800" y="1220"/>
      <point x="800" y="1334" type="curve" smooth="yes"/>
      <point x="800" y="1466"/>
      <point x="702" y="1549"/>
      <point x="565" y="1549" type="curve" smooth="yes"/>
    </contour>
    <contour>
      <point x="624" y="1421"/>
      <point x="662" y="1380"/>
      <point x="662" y="1318" type="curve" smooth="yes"/>
      <point x="662" y="1252"/>
      <point x="620" y="1140"/>
      <point x="505" y="1049" type="curve" smooth="yes"/>
      <point x="446" y="1002" type="line"/>
      <point x="446" y="1242" type="line" smooth="yes"/>
      <point x="446" y="1374"/>
      <point x="501" y="1421"/>
      <point x="571" y="1421" type="curve" smooth="yes"/>
    </contour>
  </outline>
</glyph>
<glyph name="partialdiff" format="1">
  <advance width="1141"/>
  <unicode hex="2202"/>
  <outline>
    <contour>
      <point x="880" y="1006"/>
      <point x="757" y="1338"/>
      <point x="304" y="1338" type="curve"/>
      <point x="314" y="1432" type="line"/>
      <point x="865" y="1432"/>
      <point x="1018" y="1061"/>
      <point x="1018" y="688" type="curve" smooth="yes"/>
      <point x="1018" y="635"/>
      <point x="1015" y="581"/>
      <point x="1009" y="529" type="curve" smooth="yes"/>
      <point x="975" y="213"/>
      <point x="827" y="-24"/>
      <point x="510" y="-24" type="curve" smooth="yes"/>
      <point x="250" y="-24"/>
      <point x="132" y="167"/>
      <point x="132" y="386" type="curve" smooth="yes"/>
      <point x="132" y="409"/>
      <point x="134" y="431"/>
      <point x="136" y="454" type="curve" smooth="yes"/>
      <point x="166" y="748"/>
      <point x="386" y="908"/>
      <point x="596" y="908" type="curve" smooth="yes"/>
      <point x="710" y="908"/>
      <point x="816" y="866"/>
      <point x="885" y="772" type="curve"/>
    </contour>
    <contour>
      <point x="797" y="748"/>
      <point x="707" y="798"/>
      <point x="601" y="798" type="curve" smooth="yes"/>
      <point x="444" y="798"/>
      <point x="300" y="670"/>
      <point x="276" y="441" type="curve" smooth="yes"/>
      <point x="274" y="421"/>
      <point x="273" y="402"/>
      <point x="273" y="383" type="curve" smooth="yes"/>
      <point x="273" y="194"/>
      <point x="378" y="85"/>
      <point x="528" y="85" type="curve" smooth="yes"/>
      <point x="739" y="85"/>
      <point x="845" y="262"/>
      <point x="871" y="511" type="curve" smooth="yes"/>
      <point x="873" y="531"/>
      <point x="879" y="594"/>
      <point x="879" y="631" type="curve" smooth="yes"/>
      <point x="879" y="639"/>
      <point x="879" y="645"/>
      <point x="878" y="650" type="curve"/>
    </contour>
  </outline>
</glyph>
<glyph name="emptyset" format="1">
  <advance width="1702"/>
  <unicode hex="2205"/>
  <outline>
    <contour>
      <point x="258" y="-57" type="line"/>
      <point x="404" y="115" type="line"/>
      <point x="527" y="25"/>
      <point x="682" y="-25"/>
      <point x="850" y="-25" type="curve" smooth="yes"/>
      <point x="1251" y="-25"/>
      <point x="1579" y="297"/>
      <point x="1579" y="696" type="curve" smooth="yes"/>
      <point x="1579" y="906"/>
      <point x="1489" y="1094"/>
      <point x="1346" y="1226" type="curve"/>
      <point x="1499" y="1406" type="line"/>
      <point x="1438" y="1450" type="line"/>
      <point x="1289" y="1273" type="line"/>
      <point x="1167" y="1365"/>
      <point x="1015" y="1419"/>
      <point x="850" y="1419" type="curve" smooth="yes"/>
      <point x="451" y="1419"/>
      <point x="123" y="1127"/>
      <point x="123" y="696" type="curve" smooth="yes"/>
      <point x="123" y="469"/>
      <point x="211" y="284"/>
      <point x="351" y="158" type="curve"/>
      <point x="204" y="-16" type="line"/>
    </contour>
    <contour>
      <point x="397" y="213" type="line"/>
      <point x="277" y="329"/>
      <point x="204" y="495"/>
      <point x="204" y="695" type="curve" smooth="yes"/>
      <point x="204" y="1076"/>
      <point x="483" y="1354"/>
      <point x="850" y="1354" type="curve" smooth="yes"/>
      <point x="1000" y="1354"/>
      <point x="1135" y="1303"/>
      <point x="1243" y="1218" type="curve"/>
    </contour>
    <contour>
      <point x="849" y="40" type="curve" smooth="yes"/>
      <point x="696" y="40"/>
      <point x="558" y="86"/>
      <point x="449" y="169" type="curve"/>
      <point x="1299" y="1170" type="line"/>
      <point x="1423" y="1048"/>
      <point x="1498" y="877"/>
      <point x="1498" y="695" type="curve" smooth="yes"/>
      <point x="1498" y="345"/>
      <point x="1217" y="40"/>
    </contour>
  </outline>
</glyph>
<glyph name="uni2206" format="1">
  <advance width="1279"/>
  <unicode hex="2206"/>
  <outline>
    <contour>
      <point x="65" y="0" type="line"/>
      <point x="1184" y="0" type="line"/>
      <point x="1184" y="85" type="line"/>
      <point x="703" y="1537" type="line"/>
      <point x="547" y="1537" type="line"/>
      <point x="65" y="85" type="line"/>
    </contour>
    <contour>
      <point x="207" y="131" type="line"/>
      <point x="580" y="1321" type="line"/>
      <point x="612" y="1439" type="line"/>
      <point x="646" y="1321" type="line"/>
      <point x="1018" y="131" type="line"/>
    </contour>
  </outline>
</glyph>
<glyph name="product" format="1">
  <advance width="1405"/>
  <unicode hex="220F"/>
  <outline>
    <contour>
      <point x="1253" y="0" type="line"/>
      <point x="1253" y="1464" type="line"/>
      <point x="152" y="1464" type="line"/>
      <point x="152" y="0" type="line"/>
      <point x="298" y="0" type="line"/>
      <point x="298" y="1352" type="line"/>
      <point x="1107" y="1352" type="line"/>
      <point x="1107" y="0" type="line"/>
    </contour>
    <contour>
      <point x="715" y="1464" type="move" name="top"/>
    </contour>
  </outline>
</glyph>
<glyph name="summation" format="1">
  <advance width="1288"/>
  <unicode hex="2211"/>
  <outline>
    <contour>
      <point x="161" y="-18" type="line" smooth="yes"/>
      <point x="1142" y="-18" type="line" smooth="yes"/>
      <point x="1142" y="97" type="line" smooth="yes"/>
      <point x="306" y="97" type="line" smooth="yes"/>
      <point x="865" y="680" type="line" smooth="yes"/>
      <point x="865" y="789" type="line" smooth="yes"/>
      <point x="309" y="1382" type="line" smooth="yes"/>
      <point x="1142" y="1382" type="line" smooth="yes"/>
      <point x="1142" y="1491" type="line" smooth="yes"/>
      <point x="161" y="1491" type="line" smooth="yes"/>
      <point x="161" y="1375" type="line" smooth="yes"/>
      <point x="734" y="737" type="line" smooth="yes"/>
      <point x="161" y="115" type="line" smooth="yes"/>
    </contour>
  </outline>
</glyph>
<glyph name="uni2219" format="1">
  <advance width="600"/>
  <unicode hex="2219"/>
  <outline>
    <contour>
      <point x="225" y="543" type="line"/>
      <point x="389" y="543" type="line"/>
      <point x="389" y="758" type="line"/>
      <point x="225" y="758" type="line"/>
    </contour>
  </outline>
</glyph>
<glyph name="radical" format="1">
  <advance width="1240"/>
  <unicode hex="221A"/>
  <outline>
    <contour>
      <point x="1161" y="1464" type="line"/>
      <point x="1023" y="1464" type="line"/>
      <point x="527" y="136" type="line"/>
      <point x="252" y="543" type="line"/>
      <point x="108" y="543" type="line"/>
      <point x="471" y="0" type="line"/>
      <point x="597" y="0" type="line"/>
    </contour>
  </outline>
</glyph>
<glyph name="infinity" format="1">
  <advance width="1628"/>
  <unicode hex="221E"/>
  <outline>
    <contour>
      <point x="183" y="298"/>
      <point x="59" y="511"/>
      <point x="59" y="727" type="curve" smooth="yes"/>
      <point x="59" y="946"/>
      <point x="188" y="1168"/>
      <point x="446" y="1168" type="curve" smooth="yes"/>
      <point x="606" y="1168"/>
      <point x="739" y="1076"/>
      <point x="832" y="900" type="curve"/>
      <point x="899" y="1068"/>
      <point x="1018" y="1156"/>
      <point x="1180" y="1156" type="curve" smooth="yes"/>
      <point x="1446" y="1156"/>
      <point x="1580" y="946"/>
      <point x="1580" y="736" type="curve" smooth="yes"/>
      <point x="1580" y="527"/>
      <point x="1447" y="318"/>
      <point x="1182" y="318" type="curve" smooth="yes"/>
      <point x="1039" y="318"/>
      <point x="921" y="402"/>
      <point x="840" y="564" type="curve"/>
      <point x="727" y="389"/>
      <point x="587" y="298"/>
      <point x="432" y="298" type="curve" smooth="yes"/>
    </contour>
    <contour>
      <point x="720" y="904"/>
      <point x="600" y="1033"/>
      <point x="449" y="1033" type="curve" smooth="yes"/>
      <point x="264" y="1033"/>
      <point x="174" y="887"/>
      <point x="174" y="740" type="curve" smooth="yes"/>
      <point x="174" y="591"/>
      <point x="266" y="442"/>
      <point x="448" y="442" type="curve" smooth="yes"/>
      <point x="584" y="442"/>
      <point x="704" y="516"/>
      <point x="797" y="658" type="curve"/>
    </contour>
    <contour>
      <point x="954" y="574"/>
      <point x="1061" y="455"/>
      <point x="1185" y="455" type="curve" smooth="yes"/>
      <point x="1368" y="455"/>
      <point x="1459" y="595"/>
      <point x="1459" y="736" type="curve" smooth="yes"/>
      <point x="1459" y="877"/>
      <point x="1367" y="1019"/>
      <point x="1182" y="1019" type="curve" smooth="yes"/>
      <point x="1057" y="1019"/>
      <point x="951" y="944"/>
      <point x="873" y="801" type="curve"/>
    </contour>
  </outline>
</glyph>
<glyph name="integral" format="1">
  <advance width="757"/>
  <unicode hex="222B"/>
  <outline>
    <contour>
      <point x="182" y="-209" type="curve" smooth="yes"/>
      <point x="357" y="-209"/>
      <point x="425" y="-99"/>
      <point x="449" y="123" type="curve" smooth="yes"/>
      <point x="556" y="1146" type="line" smooth="yes"/>
      <point x="572" y="1305"/>
      <point x="591" y="1366"/>
      <point x="683" y="1366" type="curve" smooth="yes"/>
      <point x="725" y="1366"/>
      <point x="759" y="1353"/>
      <point x="788" y="1338" type="curve"/>
      <point x="834" y="1428" type="line"/>
      <point x="807" y="1449"/>
      <point x="748" y="1474"/>
      <point x="680" y="1474" type="curve" smooth="yes"/>
      <point x="505" y="1474"/>
      <point x="437" y="1364"/>
      <point x="413" y="1142" type="curve" smooth="yes"/>
      <point x="306" y="119" type="line" smooth="yes"/>
      <point x="290" y="-40"/>
      <point x="271" y="-101"/>
      <point x="179" y="-101" type="curve" smooth="yes"/>
      <point x="137" y="-101"/>
      <point x="103" y="-88"/>
      <point x="74" y="-73" type="curve"/>
      <point x="28" y="-163" type="line"/>
      <point x="55" y="-184"/>
      <point x="114" y="-209"/>
    </contour>
  </outline>
</glyph>
<glyph name="approxequal" format="1">
  <advance width="962"/>
  <unicode hex="2248"/>
  <outline>
    <contour>
      <point x="825" y="429" type="curve" smooth="yes"/>
      <point x="932" y="425"/>
      <point x="981" y="478"/>
      <point x="990" y="653" type="curve"/>
      <point x="871" y="653" type="line"/>
      <point x="866" y="582"/>
      <point x="834" y="558"/>
      <point x="781" y="558" type="curve" smooth="yes"/>
      <point x="674" y="558"/>
      <point x="480" y="657"/>
      <point x="255" y="666" type="curve" smooth="yes"/>
      <point x="163" y="669"/>
      <point x="85" y="651"/>
      <point x="70" y="436" type="curve"/>
      <point x="188" y="436" type="line"/>
      <point x="187" y="512"/>
      <point x="221" y="537"/>
      <point x="280" y="537" type="curve" smooth="yes"/>
      <point x="395" y="537"/>
      <point x="604" y="439"/>
    </contour>
    <contour>
      <point x="776" y="717" type="curve" smooth="yes"/>
      <point x="883" y="713"/>
      <point x="932" y="767"/>
      <point x="941" y="941" type="curve"/>
      <point x="822" y="941" type="line"/>
      <point x="817" y="870"/>
      <point x="785" y="847"/>
      <point x="732" y="847" type="curve" smooth="yes"/>
      <point x="625" y="847"/>
      <point x="431" y="946"/>
      <point x="206" y="954" type="curve" smooth="yes"/>
      <point x="114" y="957"/>
      <point x="36" y="939"/>
      <point x="21" y="724" type="curve"/>
      <point x="139" y="724" type="line"/>
      <point x="138" y="800"/>
      <point x="172" y="826"/>
      <point x="231" y="826" type="curve" smooth="yes"/>
      <point x="346" y="826"/>
      <point x="555" y="727"/>
    </contour>
  </outline>
</glyph>
<glyph name="notequal" format="1">
  <advance width="896"/>
  <unicode hex="2260"/>
  <outline>
    <contour>
      <point x="848" y="805" type="line"/>
      <point x="848" y="905" type="line"/>
      <point x="604" y="905" type="line"/>
      <point x="699" y="1137" type="line"/>
      <point x="582" y="1164" type="line"/>
      <point x="479" y="905" type="line"/>
      <point x="48" y="905" type="line"/>
      <point x="48" y="805" type="line"/>
      <point x="439" y="805" type="line"/>
      <point x="379" y="655" type="line"/>
      <point x="48" y="655" type="line"/>
      <point x="48" y="555" type="line"/>
      <point x="339" y="555" type="line"/>
      <point x="244" y="317" type="line"/>
      <point x="353" y="290" type="line"/>
      <point x="461" y="555" type="line"/>
      <point x="848" y="555" type="line"/>
      <point x="848" y="655" type="line"/>
      <point x="502" y="655" type="line"/>
      <point x="563" y="805" type="line"/>
    </contour>
  </outline>
</glyph>
<glyph name="lessequal" format="1">
  <advance width="1051"/>
  <unicode hex="2264"/>
  <outline>
    <contour>
      <point x="998" y="242" type="line"/>
      <point x="998" y="380" type="line"/>
      <point x="211" y="614" type="line"/>
      <point x="998" y="826" type="line"/>
      <point x="998" y="978" type="line"/>
      <point x="49" y="684" type="line"/>
      <point x="49" y="558" type="line"/>
    </contour>
    <contour>
      <point x="41" y="0" type="line"/>
      <point x="1000" y="0" type="line"/>
      <point x="1000" y="112" type="line"/>
      <point x="41" y="112" type="line"/>
    </contour>
  </outline>
</glyph>
<glyph name="greaterequal" format="1">
  <advance width="1051"/>
  <unicode hex="2265"/>
  <outline>
    <contour>
      <point x="53" y="233" type="line"/>
      <point x="1002" y="548" type="line"/>
      <point x="1002" y="674" type="line"/>
      <point x="53" y="970" type="line"/>
      <point x="53" y="832" type="line"/>
      <point x="840" y="618" type="line"/>
      <point x="53" y="385" type="line"/>
    </contour>
    <contour>
      <point x="55" y="0" type="line"/>
      <point x="1014" y="0" type="line"/>
      <point x="1014" y="112" type="line"/>
      <point x="55" y="112" type="line"/>
    </contour>
  </outline>
</glyph>
<glyph name="lozenge" format="1">
  <advance width="1057"/>
  <unicode hex="25CA"/>
  <outline>
    <contour>
      <point x="592" y="0" type="line"/>
      <point x="1025" y="699" type="line"/>
      <point x="592" y="1398" type="line"/>
      <point x="453" y="1398" type="line"/>
      <point x="32" y="699" type="line"/>
      <point x="453" y="0" type="line"/>
    </contour>
    <contour>
      <point x="530" y="1279" type="line"/>
      <point x="873" y="699" type="line"/>
      <point x="530" y="119" type="line"/>
      <point x="190" y="699" type="line"/>
    </contour>
  </outline>
</glyph>
<glyph name="caron.alt" format="1">
  <advance width="600"/>
  <outline>
    <contour>
      <point x="500" y="1125" type="line"/>
      <point x="642" y="1216"/>
      <point x="642" y="1355"/>
      <point x="647" y="1513" type="curve"/>
      <point x="647" y="1598" type="line"/>
      <point x="427" y="1598" type="line"/>
      <point x="427" y="1408" type="line"/>
      <point x="521" y="1395" type="line"/>
      <point x="518" y="1274"/>
      <point x="466" y="1207"/>
      <point x="441" y="1187" type="curve"/>
    </contour>
    <contour>
      <point x="340" y="1147" type="move" name="_caron.alt"/>
    </contour>
    <contour>
      <point x="323" y="1082" type="move" name="_top"/>
    </contour>
  </outline>
</glyph>
<glyph name="lc_ascender_stem" format="1">
  <advance width="1086"/>
  <outline>
    <contour>
      <point x="127" y="0" type="line"/>
      <point x="270" y="0" type="line"/>
      <point x="270" y="0"/>
      <point x="269" y="1474"/>
      <point x="269" y="1474" type="curve"/>
      <point x="127" y="1474" type="line"/>
    </contour>
  </outline>
</glyph>
<glyph name="lc_ascender_stem_2" format="1">
  <advance width="1078"/>
  <outline>
    <contour>
      <point x="128" y="0" type="line"/>
      <point x="238" y="0" type="line"/>
      <point x="238" y="0"/>
      <point x="270" y="758"/>
      <point x="270" y="758" type="curve"/>
      <point x="270" y="1474" type="line"/>
      <point x="128" y="1474" type="line"/>
    </contour>
  </outline>
</glyph>
<glyph name="lc_ascender_stem_3" format="1">
  <advance width="1078"/>
  <outline>
    <contour>
      <point x="867" y="0" type="curve"/>
      <point x="977" y="0" type="line"/>
      <point x="977" y="1474" type="line"/>
      <point x="835" y="1474" type="line"/>
      <point x="835" y="758" type="line"/>
      <point x="835" y="758"/>
      <point x="867" y="0"/>
    </contour>
  </outline>
</glyph>
<glyph name="lc_curved_stem" format="1">
  <advance width="1086"/>
  <outline>
    <contour>
      <point x="823" y="0" type="line"/>
      <point x="965" y="0" type="line"/>
      <point x="965" y="584" type="line" smooth="yes"/>
      <point x="965" y="790"/>
      <point x="946" y="1044"/>
      <point x="623" y="1044" type="curve" smooth="yes"/>
      <point x="371" y="1044"/>
      <point x="228" y="885"/>
      <point x="204" y="610" type="curve"/>
      <point x="204" y="610"/>
      <point x="269" y="499"/>
      <point x="269" y="499" type="curve" smooth="yes"/>
      <point x="269" y="747"/>
      <point x="344" y="942"/>
      <point x="603" y="942" type="curve" smooth="yes"/>
      <point x="780" y="942"/>
      <point x="823" y="812"/>
      <point x="823" y="603" type="curve" smooth="yes"/>
    </contour>
    <contour>
      <point x="652" y="1143" type="move" name="top"/>
    </contour>
  </outline>
</glyph>
<glyph name="middot" format="1">
  <advance width="600"/>
  <outline>
    <contour>
      <point x="225" y="543" type="line"/>
      <point x="389" y="543" type="line"/>
      <point x="389" y="758" type="line"/>
      <point x="225" y="758" type="line"/>
    </contour>
  </outline>
</glyph>
<glyph name="uc_main_stem" format="1">
  <advance width="1457"/>
  <outline>
    <contour>
      <point x="294" y="0" type="curve"/>
      <point x="148" y="0" type="line"/>
      <point x="148" y="1464" type="line"/>
      <point x="294" y="1464" type="line"/>
      <point x="294" y="1464"/>
      <point x="294" y="0"/>
    </contour>
  </outline>
</glyph>
